<svg xmlns="http://www.w3.org/2000/svg" width="512" height="512" viewBox="0 0 512 512">
  <title>barrier-closed</title>
  <line x1="24" y1="416" x2="240" y2="416" fill="none" stroke="#000" stroke-linecap="round" stroke-linejoin="round" stroke-width="32"/>
  <path d="M216,152V140.75C216,116,193.85,96,166.54,96H97.46C70.15,96,48,116,48,140.75V416H216V240" fill="none" stroke="#000" stroke-linecap="round" stroke-linejoin="round" stroke-width="32"/>
  <line x1="104" y1="296" x2="152" y2="296" fill="none" stroke="#000" stroke-linecap="round" stroke-linejoin="round" stroke-width="32"/>
  <path d="M132,152h0a44,44,0,0,1,44,44h0a44,44,0,0,1-44,44h0" fill="none" stroke="#000" stroke-linecap="round" stroke-linejoin="round" stroke-width="32"/>
  <path d="M160,160H444a36,36,0,0,1,36,36h0a36,36,0,0,1-36,36H160" fill="none" stroke="#000" stroke-linecap="round" stroke-linejoin="round" stroke-width="32"/>
  <line x1="192" y1="232" x2="264" y2="160" fill="none" stroke="#000" stroke-linecap="round" stroke-linejoin="round" stroke-width="32"/>
  <line x1="280" y1="232" x2="352" y2="160" fill="none" stroke="#000" stroke-linecap="round" stroke-linejoin="round" stroke-width="32"/>
  <line x1="368" y1="232" x2="440" y2="160" fill="none" stroke="#000" stroke-linecap="round" stroke-linejoin="round" stroke-width="32"/>
  <path d="M132,240a44,44,0,0,1-44-44h0a44,44,0,0,1,44-44" fill="none" stroke="#000" stroke-linecap="round" stroke-linejoin="round" stroke-width="32"/>
</svg>
