<svg xmlns="http://www.w3.org/2000/svg" width="512" height="512" viewBox="0 0 512 512">
  <title>lektrico</title>
  <path d="M325.05,285.29,241,405.77l32.2-111.36c-9,.95-18,2-27.12,3.1a11.76,11.76,0,0,1-1.45.09,11.55,11.55,0,0,1-8.93-18.89l65.73-81.95-21.3,73.65s23.11-2.13,34.37-2.93a11.53,11.53,0,0,1,10.52,17.81ZM300.82,404.11a11.25,11.25,0,0,1-.14-22.49c18.95-.23,35.47-.12,50.3.34a1,1,0,0,0,1-.86,65.28,65.28,0,0,1,113.33-34.58c4.53-14.85,7.19-28.79,7.19-44.2,0-49.25-19.88-101.13-53.59-141.22a51.48,51.48,0,0,1-61.07,7.08L323,148a11.25,11.25,0,0,1-4.1-15.36l2.46-4.24-18.87-10.92A11.24,11.24,0,0,1,313.75,98l18.86,10.92,12.81-22.11L326.55,75.89a11.24,11.24,0,0,1,11.27-19.45l18.86,10.92,2.59-4.46a11.23,11.23,0,0,1,15.36-4.09L409.5,79a51.42,51.42,0,0,1,22.36,62.71C472,186.89,495,245,495,302.32c0,27.52-7.57,51-15.1,71a65.38,65.38,0,1,1-126.79,31.9,1,1,0,0,0-.92-.76C337.21,404,320.28,403.85,300.82,404.11Zm108-266a29,29,0,0,0-10.59-39.69L373.09,83.9,344,134.16l25.13,14.56A29.09,29.09,0,0,0,408.81,138.14Zm50.87,252.05a42.95,42.95,0,1,0-42.95,42.95A43,43,0,0,0,459.68,390.19ZM197.83,281c-22.2,3.47-44.9,7.53-67.45,12.06a11.58,11.58,0,0,0,2.26,22.93,12,12,0,0,0,2.3-.23c22.23-4.47,44.59-8.46,66.47-11.89A11.57,11.57,0,1,0,197.83,281Zm212-58.08c-11.59-18.45-35.31-27.81-70.53-27.81q-4.11,0-8.21.08a11.58,11.58,0,1,0,.42,23.15c2.59,0,5.18-.07,7.79-.07,26.28,0,43.87,5.83,50.86,16.88,6.08,9.59,3.89,22.13,1.63,29.7-6.77-.07-17.19-.06-31,.33a11.58,11.58,0,0,0,.33,23.15h.33c18.64-.53,30.92-.32,36.15-.23l2.05,0a11.82,11.82,0,0,0,10.54-6.54C410.87,280.19,425.88,248.43,409.84,222.87Zm-158.6-7.43a11.58,11.58,0,0,1-8.69,13.88C118.65,257.83,41.24,329.57,40.28,353.5c0,.9-.05,1.74-.07,2.59a65.76,65.76,0,0,1,121.26,30.09,1,1,0,0,0,1,.93q24.92-1.11,47.58-2A11.57,11.57,0,1,1,211,408.2q-24.4,1-51.47,2.21a1,1,0,0,0-.9.7,65.83,65.83,0,0,1-127.81-9.74,22.83,22.83,0,0,1-2.92-2.54c-8.16-8.5-11.69-23.63-10.78-46.25,1.74-43.5,100.35-118.24,220.21-145.82A11.58,11.58,0,0,1,251.24,215.44ZM53.14,391.2a42.73,42.73,0,1,0,42.72-42.73A42.76,42.76,0,0,0,53.14,391.2Z"/>
</svg>
