<svg xmlns="http://www.w3.org/2000/svg" width="512" height="512" viewBox="0 0 512 512">
  <title>obu-one</title>
  <path d="M420.27,21.33H90.76A69.55,69.55,0,0,0,21.33,91h0V421a69.56,69.56,0,0,0,69.43,69.69H421.24A69.56,69.56,0,0,0,490.67,421h0V91a69.55,69.55,0,0,0-69.43-69.69h-1Zm34.57,183.51V221.5H415.06v22.14H379.94V221.5H131.46v22.14H96.34V221.5H52.91V204.84Zm-185.64-18L264.78,50.8h23l45.76,136.08Zm-27,0H177.85L223.61,50.8h23Zm-83.43,56.76h81.59L233.3,461.21H85.6Zm193.86,0L425.8,461.21H278.1L271,243.64Z"/>
</svg>
