<svg xmlns="http://www.w3.org/2000/svg" width="512" height="512" viewBox="0 0 512 512">
  <title>obu-one-alt</title>
  <g>
    <polygon points="44.61 202.72 44.61 220.08 89.83 220.08 89.83 243.13 126.41 243.13 126.41 220.08 385.14 220.08 385.14 243.13 421.72 243.13 421.72 220.08 463.15 220.08 463.15 202.72 44.61 202.72"/>
    <polygon points="336.84 184.03 289.19 42.32 265.24 42.32 269.83 184.03 336.84 184.03"/>
    <polygon points="246.31 42.32 222.36 42.32 174.71 184.03 241.72 184.03 246.31 42.32"/>
    <polygon points="78.65 469.69 232.45 469.69 239.8 243.13 154.84 243.13 78.65 469.69"/>
    <polygon points="271.75 243.13 279.1 469.69 432.9 469.69 356.71 243.13 271.75 243.13"/>
  </g>
</svg>
