<svg xmlns="http://www.w3.org/2000/svg" width="512" height="512" viewBox="0 0 512 512">
  <title>parking-deny</title>
  <line x1="40" y1="472" x2="472" y2="40" fill="none" stroke="#000" stroke-linecap="butt" stroke-linejoin="miter" stroke-width="32"/>
  <path d="M436.28,75.72A39.84,39.84,0,0,1,448,104V408a40,40,0,0,1-40,40" fill="none" stroke="#000" stroke-linecap="butt" stroke-linejoin="miter" stroke-width="32"/>
  <path d="M104,448a39.84,39.84,0,0,1-28.28-11.72" fill="none" stroke="#000" stroke-linecap="butt" stroke-linejoin="miter" stroke-width="32"/>
  <line x1="408" y1="448" x2="104" y2="448" fill="none" stroke="#000" stroke-linecap="butt" stroke-linejoin="miter" stroke-width="32"/>
  <g>
    <path d="M331.24,180.76A80,80,0,0,1,256,288" fill="none" stroke="#000" stroke-linecap="butt" stroke-linejoin="miter" stroke-width="32"/>
    <path d="M256,128a79.62,79.62,0,0,1,43.53,12.87" fill="none" stroke="#000" stroke-linecap="butt" stroke-linejoin="miter" stroke-width="32"/>
    <polyline points="256 128 184 128 184 256" fill="none" stroke="#000" stroke-linecap="butt" stroke-linejoin="miter" stroke-width="32"/>
    <line x1="256" y1="288" x2="224" y2="288" fill="none" stroke="#000" stroke-linecap="butt" stroke-linejoin="miter" stroke-width="32"/>
    <line x1="184" y1="328" x2="184" y2="384" fill="none" stroke="#000" stroke-linecap="butt" stroke-linejoin="miter" stroke-width="32"/>
  </g>
  <path d="M64,376V104a40,40,0,0,1,40-40H376" fill="none" stroke="#000" stroke-linecap="butt" stroke-linejoin="miter" stroke-width="32"/>
</svg>
