<svg xmlns="http://www.w3.org/2000/svg" width="512" height="512" viewBox="0 0 512 512">
  <title>safefleet</title>
  <g>
    <path d="M31.94,238.23a103.34,103.34,0,0,0,10.72,10q-6.13,12.28-11.21,24.43a37.71,37.71,0,0,0,17.25,11q4.95-11.83,11-23.9Q65.52,263,72,266q-4.67,9.64-8.61,19.16H83.24Q86,279,89.05,272.85q6.3,2.2,13,4.1-2,4.13-3.85,8.22h18.73c.64-1.33,1.3-2.66,2-4q6.52,1.43,13.36,2.61l-.69,1.39,136.58.05V262.57c-.74.64-1.49,1.28-2.23,1.94q-1-7.92-2.25-15.67c1.49-1.22,3-2.38,4.49-3.52v-11q-3.09,2.3-6.18,4.81-1.34-7.19-2.92-14.2,4.54-3.6,9.11-6.76v-13.9q-6,4-12,8.7-1.75-6.77-3.73-13.33,7.89-6.09,15.75-11.1V173a228.9,228.9,0,0,0-20,13.64Q246,180.16,243.5,174a250.35,250.35,0,0,1,24.68-16.63v-18.6a253.51,253.51,0,0,0-31.23,20q-2.85-6.15-6-12a274.15,274.15,0,0,1,37.2-23.73V104.1a278.53,278.53,0,0,0-45.67,27.73q-3.6-5.82-7.46-11.3A298.66,298.66,0,0,1,268.2,88V76.08a38.12,38.12,0,0,0-.71-7.3C246.84,77.42,225.29,90,203.87,106q-4.51-5.35-9.33-10.28c22.56-17.42,45.27-31.21,67-40.9a37.91,37.91,0,0,0-17.09-13.67c-21.4,10.11-43.42,23.77-65.18,40.62q-5.67-4.62-11.7-8.72a412.26,412.26,0,0,1,49.82-34.55l-158-.05A37.66,37.66,0,0,0,21.88,76l-.05,171.58a37.65,37.65,0,0,0,1.08,8.93Q27.14,247.41,31.94,238.23Z"/>
    <path d="M195,386.19c-16.43-13.47-15.93-43.37-1.55-76.68H180.94c-15.75,36.73-16.33,69.53,1.65,84.28C200,408.06,230.52,402,262.3,381.15c-37.21,26.64-73.63,35.39-93.67,19-19.24-15.79-18.65-50.92-1.89-90.59H152.53c-17.56,42.79-17.75,80.58,3.2,97.77,19.13,15.7,51.66,10.75,86.51-9.69-40.48,26.16-78.86,33.72-100.67,15.82-22.15-18.17-21.88-58.23-3.28-103.91H120.91c-18.34,48.18-17.45,90.41,6.61,110.14,21.19,17.39,56,13.76,93.81-6.07-43.64,25.48-84.32,31.61-108.27,12-25.2-20.68-26-65.08-6.67-116h-18c-18.77,53.43-16.49,100,10.83,122.45,20.9,17.15,52.82,17.16,88.46,3.32-41.9,19.35-79.78,21.55-103.61,2C55.81,414.06,53.7,365.49,73.48,309.48H59.32a37.64,37.64,0,0,0-5,.34C35.68,368,39.67,418.58,70.22,443.64c21.17,17.37,51.86,19.84,86.48,9.87-41.24,15.31-78,14.81-102.35-5.13-30-24.64-34.67-73.79-17.66-131.24A37.59,37.59,0,0,0,21.8,347l0,85.7A76.61,76.61,0,0,0,39.68,454.1c24.46,20.06,59.8,23,99.46,11.62a211.22,211.22,0,0,1-26.89,7.81l118.32,0A37.67,37.67,0,0,0,268.09,436l0-61.65C239.08,393.67,211,399.32,195,386.19Z"/>
    <path d="M280.16,284.65a12.74,12.74,0,1,0,12.7,12.74A12.73,12.73,0,0,0,280.16,284.65Z"/>
    <path d="M490.23,76.15a37.65,37.65,0,0,0-37.5-37.58l-56,0c15.87,23.51,20.38,56.94,14.57,95.51,3.41-41.12-6.37-75.21-30.82-95.27-.1-.09-.21-.16-.32-.25l-47.18,0c17.37.72,32.62,5.82,44.76,15.77,24.3,19.94,32,55.94,25,99.38,3-35.9-5.4-65.52-26.57-82.89-19.75-16.2-47.8-19.44-79.59-11.7a37.31,37.31,0,0,0-4.09,17v2.37c32.36-10.22,60.84-8.66,80.11,7.16,23.83,19.55,29.07,57.14,18.28,102,6.61-37.66.36-69-20.53-86.1-18.81-15.43-46.53-17-77.87-7.07v17.73c30.14-10.8,56.72-10.26,74.29,4.15,23.95,19.65,25.88,60.74,9.41,108.52,12-41,8.83-75.8-12.37-93.19-16.9-13.86-42.47-14.35-71.34-3.9v17.49c27.68-11.15,52.18-11.55,68,1.41,21.81,17.89,21.9,57,4.14,101.82,13.24-38.17,11.74-71-7.39-86.73-15.07-12.36-38.46-11.91-64.74-1.17v15c24.49-10.44,46.31-11.17,60.22.25,20,16.45,18.58,53.87-.28,95.56,14.25-35.25,14.21-66.37-3.17-80.64-13.13-10.78-33.77-9.95-56.78.08v13.56c20.91-9.13,39.74-9.86,51.74,0,17,13.91,15.88,45.32.12,79.93,11.15-28.18,10.75-53.26-3.5-65-11.23-9.21-28.92-8.36-48.37.44V231.1c16.84-7,32.25-7.24,42.3,1,12.2,10,13.7,30.24,6,53.15l111.88,0a37.65,37.65,0,0,0,37.49-36.16Z"/>
    <path d="M490.21,347.11a37.69,37.69,0,0,0-37.5-37.59l-160.25,0,0,126.47a37.68,37.68,0,0,0,37.5,37.58l122.74,0h0c19,0,34.71-10.67,37.11-29Z"/>
  </g>
</svg>
