<svg xmlns="http://www.w3.org/2000/svg" width="512" height="512" viewBox="0 0 512 512">
  <title>savings</title>
  <path d="M80,240a48,48,0,0,1,0-96" fill="none" stroke="#000" stroke-linecap="round" stroke-linejoin="round" stroke-width="32"/>
  <path d="M130.83,122.83A64,64,0,1,1,253.17,85.17" fill="none" stroke="#000" stroke-linecap="round" stroke-linejoin="round" stroke-width="32"/>
  <path d="M360,272a16,16,0,0,1,0-32" fill="none" stroke="#000" stroke-linecap="round" stroke-linejoin="round" stroke-width="32"/>
  <path d="M360,240a16,16,0,0,1,0,32" fill="none" stroke="#000" stroke-linecap="round" stroke-linejoin="round" stroke-width="32"/>
  <line x1="360" y1="240" x2="360" y2="272" fill="none" stroke="#000" stroke-linecap="round" stroke-linejoin="round" stroke-width="32"/>
  <line x1="344" y1="256" x2="376" y2="256" fill="none" stroke="#000" stroke-linecap="round" stroke-linejoin="round" stroke-width="32"/>
  <path d="M372.49,171.82a88.12,88.12,0,0,1,14.9-82.92,88.12,88.12,0,0,0-71.57,61.38A247.87,247.87,0,0,0,260,144C156.17,144,72,206.68,72,284c0,41.94,24.77,79.56,64,105.22V444a20,20,0,0,0,20,20h48a20,20,0,0,0,20-20V421.43a253.43,253.43,0,0,0,72,0V444a20,20,0,0,0,20,20h48a20,20,0,0,0,20-20V389.22c27.59-18,48-42,57.71-69.22H460a20,20,0,0,0,20-20V268a20,20,0,0,0-20-20H441.71C430.71,217.12,405.89,190.43,372.49,171.82Z" fill="none" stroke="#000" stroke-linecap="round" stroke-linejoin="round" stroke-width="32"/>
</svg>
