<svg xmlns="http://www.w3.org/2000/svg" width="512" height="512" viewBox="0 0 512 512">
  <title>topup</title>
  <path d="M334.55,176H424c21.3,0,38.57,17,38.57,37.89V410.11C462.57,431,445.3,448,424,448" fill="none" stroke="#000" stroke-linecap="butt" stroke-linejoin="miter" stroke-width="32"/>
  <path d="M88.86,448c-21.31,0-38.57-17-38.57-37.89V213.89C50.29,193,67.55,176,88.86,176h88.59" fill="none" stroke="#000" stroke-linecap="butt" stroke-linejoin="miter" stroke-width="32"/>
  <line x1="112" y1="387.37" x2="178.86" y2="387.37" fill="none" stroke="#000" stroke-linecap="butt" stroke-linejoin="miter" stroke-width="32"/>
  <line x1="50.29" y1="259.37" x2="462.57" y2="259.37" fill="none" stroke="#000" stroke-linecap="butt" stroke-linejoin="miter" stroke-width="32"/>
  <line x1="50.29" y1="266.95" x2="462.57" y2="266.95" fill="none" stroke="#000" stroke-linecap="butt" stroke-linejoin="miter" stroke-width="32"/>
  <line x1="50.29" y1="274.53" x2="462.57" y2="274.53" fill="none" stroke="#000" stroke-linecap="butt" stroke-linejoin="miter" stroke-width="32"/>
  <line x1="50.29" y1="282.11" x2="462.57" y2="282.11" fill="none" stroke="#000" stroke-linecap="butt" stroke-linejoin="miter" stroke-width="32"/>
  <line x1="50.29" y1="289.68" x2="462.57" y2="289.68" fill="none" stroke="#000" stroke-linecap="butt" stroke-linejoin="miter" stroke-width="32"/>
  <line x1="424" y1="448" x2="88.86" y2="448" fill="none" stroke="#000" stroke-linecap="butt" stroke-linejoin="miter" stroke-width="32"/>
  <line x1="256" y1="192" x2="256" y2="48" fill="none" stroke="#000" stroke-linecap="butt" stroke-linejoin="miter" stroke-width="32"/>
  <polyline points="192 112 256 48 320 112" fill="none" stroke="#000" stroke-linecap="butt" stroke-linejoin="miter" stroke-width="32"/>
</svg>
