<svg xmlns="http://www.w3.org/2000/svg" width="512" height="512" viewBox="0 0 512 512">
  <title>tpark-alt</title>
  <g>
    <polygon points="200.01 248.92 200.01 248.87 199.96 248.92 200.01 248.92"/>
    <path d="M389.72,98.65a132.38,132.38,0,0,0-96.4-41.48L100,57A12,12,0,0,0,88,69l0,72a12,12,0,0,0,12,12h68l0,70.32a6,6,0,0,0,10.25,4.21,143.94,143.94,0,0,1,19.15-16.2,6,6,0,0,0,2.58-4.92l-.05-85.4H120V89l173.32.16a100.26,100.26,0,0,1,73.06,31.35,94,94,0,0,1,25.44,71.07,95.89,95.89,0,0,1-95.47,89.34h-16a48,48,0,0,0-48,48v25.36l-32,32V328.9a80,80,0,0,1,80-80h14.72c35.8,0,65.86-29.3,65.25-65.09a64.06,64.06,0,0,0-64-62.87h-52.4a12,12,0,0,0-12,12v52.15a6,6,0,0,0,7.73,5.7,143.52,143.52,0,0,1,19.2-4.24,6,6,0,0,0,5.06-5.92V153h31.48c17.2,0,32,13.2,32.88,30.38a32,32,0,0,1-32,33.6h-16a112,112,0,0,0-111.95,112V449a6,6,0,0,0,10.23,4.24l85.73-85.73V328.9a16,16,0,0,1,16-16h16c67,0,123-52.37,127.39-119.22A125.62,125.62,0,0,0,389.72,98.65Z"/>
  </g>
</svg>
