<svg xmlns="http://www.w3.org/2000/svg" width="512" height="512" viewBox="0 0 512 512">
  <title>tpark</title>
  <path d="M420.27,21.33H90.76A69.55,69.55,0,0,0,21.33,91h0V421a69.56,69.56,0,0,0,69.43,69.69H421.24A69.56,69.56,0,0,0,490.67,421h0V91a69.55,69.55,0,0,0-69.43-69.69h-1ZM200,248.92l0,0v0Zm223.77-55.24c-4.4,66.85-60.36,119.22-127.39,119.22h-16a16,16,0,0,0-16,16v38.61l-85.73,85.73A6,6,0,0,1,168.39,449V328.9a112,112,0,0,1,112-112h16a32,32,0,0,0,32-33.6c-.85-17.18-15.68-30.38-32.88-30.38H263.93v27.7a6,6,0,0,1-5.06,5.92,143.52,143.52,0,0,0-19.2,4.24,6,6,0,0,1-7.73-5.7V133a12,12,0,0,1,12-12h52.4a64.06,64.06,0,0,1,64,62.87c.61,35.79-29.45,65.09-65.25,65.09H280.34a80,80,0,0,0-80,80v57.35l32-32V328.9a48,48,0,0,1,48-48h16a95.89,95.89,0,0,0,95.47-89.34,94,94,0,0,0-25.44-71.07,100.26,100.26,0,0,0-73.06-31.35L120,89v32h79.94l.05,85.4a6,6,0,0,1-2.58,4.92,143.94,143.94,0,0,0-19.15,16.2A6,6,0,0,1,168,223.28L168,153H100a12,12,0,0,1-12-12l0-72a12,12,0,0,1,12-12l193.32.18a132.38,132.38,0,0,1,96.4,41.48A125.62,125.62,0,0,1,423.73,193.68Z"/>
</svg>
