<svg xmlns="http://www.w3.org/2000/svg" width="512" height="512" viewBox="0 0 512 512">
  <title>two-park-alt</title>
  <path d="M257.69,319.91A15.81,15.81,0,0,1,256,320H208a16,16,0,0,1-16-16c0-52.94,35.79-67.69,61.91-78.45C279.16,215.14,288,209.91,288,192c0-28.88-22.38-32-32-32a32,32,0,0,0-32,32,16,16,0,0,1-32,0,64.07,64.07,0,0,1,64-64c38.28,0,64,25.72,64,64,0,40.93-31.15,53.76-53.9,63.14-21.33,8.79-35.31,15.47-40.18,32.86h28.36c53.51,0,98-43,97.72-96.54A96.11,96.11,0,0,0,256.54,96C203,95.71,160,140.21,160,193.72V393.37l30.53-30.52a5.07,5.07,0,0,0,1.47-3.56V357a5,5,0,0,1,5-5H219a5,5,0,0,1,5,5v15.51a5,5,0,0,1-1.47,3.56l-83.64,83.64A6.38,6.38,0,0,1,128,455.23V193.93C128,123.17,184.6,64.35,255.36,64c71.09-.35,129,57.56,128.64,128.65C383.65,262.19,326.82,318,257.69,319.91Z"/>
</svg>
