<?xml version="1.0" standalone="no"?>
<!DOCTYPE svg PUBLIC "-//W3C//DTD SVG 1.1//EN" "http://www.w3.org/Graphics/SVG/1.1/DTD/svg11.dtd" >
<!--
2018-10-12: Created with FontForge (http://fontforge.org)
-->
<svg xmlns="http://www.w3.org/2000/svg" xmlns:xlink="http://www.w3.org/1999/xlink" version="1.1">
<metadata>
Created by FontForge 20180321 at Fri Oct 12 16:04:59 2018
 By Mihai Grescenko
Copyright (c) 2018, Mihai Grescenko
</metadata>
<defs>
<font id="SafeFleet" horiz-adv-x="512" >
  <font-face 
    font-family="SafeFleet"
    font-weight="400"
    font-stretch="normal"
    units-per-em="512"
    panose-1="2 0 5 3 0 0 0 0 0 0"
    ascent="512"
    descent="0"
    bbox="0 15.3899 512 509.531"
    underline-thickness="50"
    underline-position="-150"
    unicode-range="U+0020-E1B4"
  />
    <missing-glyph />
    <glyph glyph-name="uniE000" unicode="add" 
d="M48 256c0 9 7 16 16 16h176v176c0 9 7 16 16 16s16 -7 16 -16v-176h176c9 0 16 -7 16 -16s-7 -16 -16 -16h-176v-176c0 -9 -7 -16 -16 -16s-16 7 -16 16v176h-176c-9 0 -16 7 -16 16z" />
    <glyph glyph-name="uniE001" unicode="adjust" 
d="M32 176c0 30 20 55 48 62v202c0 9 7 16 16 16s16 -7 16 -16v-202c28 -7 48 -32 48 -62s-20 -55 -48 -62v-58c0 -9 -7 -16 -16 -16s-16 7 -16 16v58c-28 7 -48 32 -48 62zM64 176c0 -18 14 -32 32 -32s32 14 32 32s-14 32 -32 32s-32 -14 -32 -32zM192 336
c0 30 20 55 48 62v42c0 9 7 16 16 16s16 -7 16 -16v-42c28 -7 48 -32 48 -62s-20 -55 -48 -62v-218c0 -9 -7 -16 -16 -16s-16 7 -16 16v218c-28 7 -48 32 -48 62zM224 336c0 -18 15 -32 32 -32v0v0c17 0 32 14 32 32s-14 32 -32 32s-32 -14 -32 -32zM352 256
c0 30 20 55 48 62v122c0 9 7 16 16 16s16 -7 16 -16v-122c28 -7 48 -32 48 -62s-20 -55 -48 -62v-138c0 -9 -7 -16 -16 -16s-16 7 -16 16v138c-28 7 -48 32 -48 62zM384 256c0 -18 15 -32 32 -32v0v0c17 0 32 14 32 32s-14 32 -32 32s-32 -14 -32 -32z" />
    <glyph glyph-name="uniE002" unicode="agenda" 
d="M48 128c0 9 7 16 16 16h48v32h-48c-9 0 -16 7 -16 16s7 16 16 16h48v32h-48c-9 0 -16 7 -16 16s7 16 16 16h48v32h-48c-9 0 -16 7 -16 16s7 16 16 16h48v32h-48c-9 0 -16 7 -16 16s7 16 16 16h48v8c0 31 25 56 56 56h56h184c31 0 56 -25 56 -56v-304
c0 -31 -25 -56 -56 -56h-184h-56c-31 0 -56 25 -56 56v8h-48c-9 0 -16 7 -16 16zM144 104c0 -13 11 -24 24 -24h40v352h-40c-13 0 -24 -11 -24 -24v-8h16c9 0 16 -7 16 -16s-7 -16 -16 -16h-16v-32h16c9 0 16 -7 16 -16s-7 -16 -16 -16h-16v-32h16c9 0 16 -7 16 -16
s-7 -16 -16 -16h-16v-32h16c9 0 16 -7 16 -16s-7 -16 -16 -16h-16v-32h16c9 0 16 -7 16 -16s-7 -16 -16 -16h-16v-8zM240 80h168c13 0 24 11 24 24v304c0 13 -11 24 -24 24h-168v-352z" />
    <glyph glyph-name="uniE003" unicode="airport" 
d="M39 191v27c0 9 9 18 19 16l96 -20l56 60l-162 84c-9 5 -12 17 -4 25l28 28c3 3 8 6 13 5l230 -28l62 68c11 11 26 17 40 17s30 -6 40 -16s16 -26 16 -40s-6 -29 -17 -40l-68 -62l28 -230c0 -4 -1 -9 -5 -13l-28 -28c-7 -7 -20 -6 -25 4l-84 162l-60 -55l20 -97
c2 -9 -5 -19 -16 -19h-27c-5 0 -11 3 -14 7l-52 79l-79 52c-4 3 -7 9 -7 14zM73 198l72 -48c2 -1 4 -3 5 -5l48 -72l-17 84c-1 5 1 11 5 15l82 75c7 6 18 6 24 -1c1 -1 1 -2 1 -3l83 -161l7 7l-27 230c-1 5 2 11 5 14l73 67c3 3 7 13 7 17s-4 14 -7 17s-13 7 -17 7
s-14 -5 -17 -7l-67 -73c-4 -4 -10 -6 -14 -5l-230 27l-7 -7l161 -83c8 -4 11 -14 6 -22c-1 -1 -1 -2 -2 -3l-75 -82c-4 -4 -10 -6 -15 -5z" />
    <glyph glyph-name="uniE004" unicode="alert" 
d="M24 136v56c0 7 6 16 16 16c26 0 48 22 48 48v48c0 93 75 168 168 168s168 -75 168 -168v-48c0 -26 22 -48 48 -48c9 0 16 -7 16 -16v-56c0 -7 -6 -16 -16 -16h-432c-7 0 -16 6 -16 16zM56 152h400v26c-38 8 -64 40 -64 78v48c0 75 -61 136 -136 136s-136 -61 -136 -136
v-48c0 -39 -28 -70 -64 -78v-26zM208 80c0 10 9 16 16 16h32h32c10 0 16 -9 16 -16c0 -27 -21 -48 -48 -48s-48 21 -48 48z" />
    <glyph glyph-name="uniE005" unicode="alpine" 
d="M19 248c-2 4 -2 12 0 16l112 198c2 4 8 7 13 7h225c4 0 10 -3 12 -7l112 -197c3 -5 3 -13 0 -18l-110 -195c-4 -7 -9 -9 -16 -9h-221c-8 0 -13 2 -17 9zM80 215c20 -18 41 -18 61 3c24 25 70 76 70 76s52 -52 76 -77c20 -20 43 -20 63 1c-19 20 -37 39 -55 58
c3 -1 8 -6 10 -5c7 6 10 -1 13 -4c18 -18 36 -38 55 -55c7 -6 18 -10 27 -9c11 1 22 8 30 11l-123 129l-36 -40l-57 54s-89 -95 -134 -142zM151 215l39 -15v55z" />
    <glyph glyph-name="uniE006" unicode="anchor" 
d="M32 256c0 7 6 16 16 16h80c9 0 16 -7 16 -16s-7 -16 -16 -16h-63c8 -94 82 -167 175 -175v240c-41 8 -72 44 -72 87c0 49 39 88 88 88s88 -39 88 -88c0 -43 -31 -79 -72 -87v-240c94 8 167 82 175 175h-63c-9 0 -16 7 -16 16s7 16 16 16h80c7 0 16 -6 16 -16
c0 -124 -100 -224 -224 -224s-224 100 -224 224zM200 392c0 -31 25 -56 56 -56s56 25 56 56s-25 56 -56 56s-56 -25 -56 -56z" />
    <glyph glyph-name="uniE007" unicode="array" 
d="M32 256c0 18 14 32 32 32s32 -14 32 -32s-14 -32 -32 -32s-32 14 -32 32zM88 120c0 9 4 17 10 23s13 9 22 9s17 -3 23 -9s9 -14 9 -23s-3 -16 -9 -22s-14 -10 -23 -10s-16 4 -22 10s-10 13 -10 22zM88 392c0 9 4 16 10 22s13 10 22 10s17 -4 23 -10s9 -13 9 -22
s-3 -17 -9 -23s-14 -9 -23 -9s-16 3 -22 9s-10 14 -10 23zM224 64c0 18 14 32 32 32s32 -14 32 -32s-14 -32 -32 -32s-32 14 -32 32zM224 448c0 18 14 32 32 32s32 -14 32 -32s-14 -32 -32 -32s-32 14 -32 32zM360 120c0 9 3 17 9 23s14 9 23 9s16 -3 22 -9s10 -14 10 -23
s-4 -16 -10 -22s-13 -10 -22 -10s-17 4 -23 10s-9 13 -9 22zM360 392c0 9 3 16 9 22s14 10 23 10s16 -4 22 -10s10 -13 10 -22s-4 -17 -10 -23s-13 -9 -22 -9s-17 3 -23 9s-9 14 -9 23zM416 256c0 18 14 32 32 32s32 -14 32 -32s-14 -32 -32 -32s-32 14 -32 32z" />
    <glyph glyph-name="uniE008" unicode="arrow_back" 
d="M48 256c0 3 1 6 2 8l3 3l96 96c6 6 16 6 22 0s6 -16 0 -22l-68 -69h345c9 0 16 -7 16 -16s-7 -16 -16 -16h-345l68 -69c6 -6 6 -16 0 -22s-16 -6 -22 0l-96 96c-1 1 -2 1 -2 2c-2 3 -3 6 -3 9z" />
    <glyph glyph-name="uniE009" unicode="arrow_e" 
d="M88 256c0 9 7 16 16 16h265l-124 125c-6 6 -6 16 0 22s16 6 22 0l152 -152c7 -7 5 -17 0 -22l-152 -152c-6 -6 -16 -6 -22 0s-6 16 0 22l124 125h-265c-9 0 -16 7 -16 16z" />
    <glyph glyph-name="uniE00A" unicode="arrow_n" 
d="M93 245c-6 6 -6 16 0 22l152 152c7 7 17 5 22 0l152 -152c6 -6 6 -16 0 -22s-16 -6 -22 0l-125 124v-265c0 -9 -7 -16 -16 -16s-16 7 -16 16v265l-125 -124c-6 -6 -16 -6 -22 0z" />
    <glyph glyph-name="uniE00B" unicode="arrow_ne" 
d="M133 133c-6 6 -6 16 0 22l196 197h-177c-9 0 -16 7 -16 16s7 16 16 16h216c10 0 16 -9 16 -16v-216c0 -9 -7 -16 -16 -16s-16 7 -16 16v177l-197 -196c-6 -6 -16 -6 -22 0z" />
    <glyph glyph-name="uniE00C" unicode="arrow_nw" 
d="M128 152v216c0 7 6 16 16 16h216c9 0 16 -7 16 -16s-7 -16 -16 -16h-177l196 -197c6 -6 6 -16 0 -22s-16 -6 -22 0l-197 196v-177c0 -9 -7 -16 -16 -16s-16 7 -16 16z" />
    <glyph glyph-name="uniE00D" unicode="arrow_quick_se" 
d="M29 357c-6 6 -6 16 0 22s16 6 22 0l133 -132l93 92c7 7 17 5 22 0l157 -156v89c0 9 7 16 16 16s16 -7 16 -16v-128c0 -10 -9 -16 -16 -16h-128c-9 0 -16 7 -16 16s7 16 16 16h89l-145 145l-93 -92c-5 -5 -15 -7 -22 0z" />
    <glyph glyph-name="uniE00E" unicode="arrow_quick_sw" 
d="M24 144v128c0 9 7 16 16 16s16 -7 16 -16v-89l157 156c5 5 15 7 22 0l93 -92l133 132c6 6 16 6 22 0s6 -16 0 -22l-144 -144c-7 -7 -17 -5 -22 0l-93 92l-145 -145h89c9 0 16 -7 16 -16s-7 -16 -16 -16h-128c-7 0 -16 6 -16 16z" />
    <glyph glyph-name="uniE00F" unicode="arrow_s" 
d="M93 245c-6 6 -6 16 0 22s16 6 22 0l125 -124v265c0 9 7 16 16 16s16 -7 16 -16v-265l125 124c6 6 16 6 22 0s6 -16 0 -22l-152 -152c-5 -5 -15 -7 -22 0z" />
    <glyph glyph-name="uniE010" unicode="arrow_se" 
d="M133 357c-6 6 -6 16 0 22s16 6 22 0l197 -196v177c0 9 7 16 16 16s16 -7 16 -16v-216c0 -7 -6 -16 -16 -16h-216c-9 0 -16 7 -16 16s7 16 16 16h177z" />
    <glyph glyph-name="uniE011" unicode="arrow_sw" 
d="M128 144v216c0 9 7 16 16 16s16 -7 16 -16v-177l197 196c6 6 16 6 22 0s6 -16 0 -22l-196 -197h177c9 0 16 -7 16 -16s-7 -16 -16 -16h-216c-10 0 -16 9 -16 16z" />
    <glyph glyph-name="uniE012" unicode="arrow_w" 
d="M93 245c-7 7 -5 17 0 22l152 152c6 6 16 6 22 0s6 -16 0 -22l-124 -125h265c9 0 16 -7 16 -16s-7 -16 -16 -16h-265l124 -125c6 -6 6 -16 0 -22s-16 -6 -22 0z" />
    <glyph glyph-name="uniE013" unicode="at" 
d="M32 256c0 124 100 224 224 224s224 -100 224 -224c0 -40 -32 -72 -72 -72c-20 0 -39 8 -52 22c-18 -37 -56 -62 -100 -62c-62 0 -112 50 -112 112s50 112 112 112c31 0 60 -13 80 -34v2c0 9 7 16 16 16s16 -7 16 -16v-80c0 -22 18 -40 40 -40s40 18 40 40
c0 106 -86 192 -192 192s-192 -86 -192 -192s86 -192 192 -192c43 0 106 26 136 56c6 6 16 6 22 0s6 -16 0 -22c-37 -37 -105 -66 -158 -66c-124 0 -224 100 -224 224zM176 256c0 -44 36 -80 80 -80s80 36 80 80s-36 80 -80 80s-80 -36 -80 -80z" />
    <glyph glyph-name="uniE014" unicode="attachment" 
d="M40 188c0 38 20 85 46 112v0l147 147h1c19 19 51 32 78 32c62 0 112 -50 112 -112c0 -27 -13 -59 -32 -78v0l-147 -147v0c-11 -11 -29 -19 -45 -19c-35 0 -64 29 -64 64c0 16 6 33 17 44l1 1l147 147c6 6 17 6 23 0s6 -16 0 -22l-147 -147v0c-4 -4 -9 -17 -9 -23
c0 -18 14 -32 32 -32c6 0 18 5 22 9v0l147 147c12 12 23 39 23 56c0 44 -36 80 -80 80c-17 0 -44 -10 -56 -22l-147 -147c-19 -20 -37 -63 -37 -90c0 -71 57 -128 128 -128c27 0 70 18 90 37l147 147c6 6 17 6 23 0s6 -17 0 -23l-147 -147h-1c-27 -26 -74 -46 -112 -46
c-88 0 -160 72 -160 160z" />
    <glyph glyph-name="uniE015" unicode="award" 
d="M92 332c0 91 73 164 164 164s164 -73 164 -164c0 -56 -29 -105 -72 -135l43 -161c1 -3 1 -7 0 -10c-3 -9 -14 -12 -22 -8l-113 52l-113 -52c-3 -1 -7 -3 -10 -2c-9 2 -14 11 -12 20l43 161c-43 30 -72 79 -72 135zM124 332c0 -49 26 -91 65 -114c1 0 2 -1 2 -1
c19 -11 41 -17 65 -17s46 6 65 17l2 1c39 23 65 65 65 114c0 73 -59 132 -132 132s-132 -59 -132 -132zM160 61l80 37v71c-17 2 -33 6 -48 12zM172 332c0 46 38 84 84 84s84 -38 84 -84s-38 -84 -84 -84s-84 38 -84 84zM204 332c0 -29 23 -52 52 -52s52 23 52 52
s-23 52 -52 52s-52 -23 -52 -52zM272 98l80 -37l-32 120c-15 -6 -31 -10 -48 -12v-71z" />
    <glyph glyph-name="uniE016" unicode="aws" 
d="M21 101v300l210 -63v-300zM61 430l196 61l188 -58l-188 -63zM281 38v300l210 63v-300z" />
    <glyph glyph-name="uniE017" unicode="balance" 
d="M32 304v3c0 2 1 4 2 5l72 128c1 2 4 5 6 6s5 2 8 2h91c7 19 24 32 45 32s38 -13 45 -32h91c2 0 4 -1 5 -1s3 -1 4 -2c2 -1 4 -3 5 -5l72 -128c1 -2 2 -4 2 -6v-2c0 -49 -39 -88 -88 -88s-88 39 -88 88v3c0 2 1 4 2 5l59 104h-64c-5 -14 -15 -24 -29 -29v-323h48
c9 0 16 -7 16 -16s-7 -16 -16 -16h-64h-64c-9 0 -16 7 -16 16s7 16 16 16h48v323c-14 5 -24 15 -29 29h-64l59 -104c1 -2 2 -4 2 -6v-2c0 -49 -39 -88 -88 -88s-88 39 -88 88zM66 288c7 -23 28 -40 54 -40c25 0 47 16 54 40h-108zM75 320h90l-45 79zM240 432
c0 -9 7 -16 16 -16s16 7 16 16s-7 16 -16 16s-16 -7 -16 -16zM338 288c7 -23 28 -40 54 -40c25 0 47 16 54 40h-108zM347 320h90l-45 79z" />
    <glyph glyph-name="uniE018" unicode="bank" 
d="M25 46l24 64c2 6 8 10 15 10h17l6 184h-47c-3 0 -9 2 -12 6c-6 7 -5 18 3 23l216 152c5 3 12 4 18 0l216 -152c3 -2 7 -7 7 -12c1 -9 -7 -17 -16 -17h-47l6 -184h17c6 0 13 -4 15 -10l24 -64c0 -1 1 -4 1 -5c1 -9 -7 -17 -16 -17h-432c-1 0 -3 1 -4 1c-9 3 -14 12 -11 21
zM63 56h386l-12 32h-21h-64h-64h-64h-64h-64h-21zM91 336h13h48h80h48h80h48h13l-165 116zM113 120h30l-6 184h-18zM169 304l6 -184h34l6 184h-46zM241 120h30l-6 184h-18zM297 304l6 -184h34l6 184h-46zM369 120h30l-6 184h-18z" />
    <glyph glyph-name="uniE019" unicode="barrier_closed" 
d="M8 96c0 9 7 16 16 16h8v259c0 35 30 61 65 61h70c35 0 65 -26 65 -61v-3h212c29 0 52 -23 52 -52s-23 -52 -52 -52h-212v-152h8c9 0 16 -7 16 -16s-7 -16 -16 -16h-24h-168h-24c-9 0 -16 7 -16 16zM64 112h136v152h-38c-9 -5 -19 -8 -30 -8c-33 0 -60 27 -60 60
s27 60 60 60c11 0 21 -3 30 -8h38v3c0 15 -13 29 -33 29h-70c-20 0 -33 -14 -33 -29v-259zM88 216c0 9 7 16 16 16h48c9 0 16 -7 16 -16s-7 -16 -16 -16h-48c-9 0 -16 7 -16 16zM104 316c0 -15 13 -28 28 -28s28 13 28 28s-13 28 -28 28s-28 -13 -28 -28zM189 336
c2 -6 3 -13 3 -20c0 -5 -1 -10 -2 -15l35 35h-36zM231 296h42l40 40h-42zM319 296h42l40 40h-42zM407 296h37c11 0 20 9 20 20c0 10 -8 19 -18 20z" />
    <glyph glyph-name="uniE01A" unicode="barrier_open" 
d="M28 48c0 9 7 16 16 16h8v259c0 35 30 61 65 61h70c12 0 25 -4 35 -10l165 106c8 5 18 8 28 8c17 0 35 -10 44 -24c5 -8 8 -18 8 -28c0 -17 -10 -34 -24 -43l-191 -122v-207h8c9 0 16 -7 16 -16s-7 -16 -16 -16h-24h-168h-24c-9 0 -16 7 -16 16zM84 64h136v186l-15 -9
c-10 -19 -30 -33 -53 -33c-33 0 -60 27 -60 60c0 32 25 58 57 60l37 24h-69c-20 0 -33 -14 -33 -29v-259zM108 168c0 9 7 16 16 16h48c9 0 16 -7 16 -16s-7 -16 -16 -16h-48c-9 0 -16 7 -16 16zM124 268c0 -15 13 -28 28 -28s28 13 28 28s-13 28 -28 28s-28 -13 -28 -28z
M189 315c9 -7 16 -17 20 -29l11 49zM246 305l36 23l12 55l-36 -23zM320 352l36 23l12 55l-36 -23zM394 399l32 20c4 3 9 12 9 17c0 2 -2 9 -3 11c-3 4 -12 9 -17 9c-1 0 -6 -1 -9 -2z" />
    <glyph glyph-name="uniE01B" unicode="battery_charging" 
d="M16 194v124c0 32 27 58 59 58h93c9 0 16 -7 16 -16s-7 -16 -16 -16h-93c-15 0 -27 -12 -27 -26v-124c0 -14 12 -26 27 -26h51c9 0 16 -7 16 -16s-7 -16 -16 -16h-51c-32 0 -59 26 -59 58zM72 208v96c0 7 6 16 16 16h43c9 0 16 -7 16 -16s-7 -16 -16 -16h-27v-64h30
c9 0 16 -7 16 -16s-7 -16 -16 -16h-46c-7 0 -16 6 -16 16zM163 121l79 119h-66c-2 0 -6 1 -8 2c-8 4 -10 15 -5 23l96 144c5 7 15 9 22 4s9 -15 4 -22l-79 -119h66c9 0 17 -8 16 -17c0 -3 -2 -6 -3 -8l-96 -144c-5 -7 -15 -9 -22 -4s-9 15 -4 22zM264 152c0 9 7 16 16 16h77
c15 0 27 12 27 26v124c0 14 -12 26 -27 26h-35c-9 0 -16 7 -16 16s7 16 16 16h35c32 0 59 -26 59 -58v-124c0 -32 -27 -58 -59 -58h-77c-9 0 -16 7 -16 16zM298 304c0 9 7 16 16 16h30c7 0 16 -6 16 -16v-96c0 -7 -6 -16 -16 -16h-27c-9 0 -16 7 -16 16s7 16 16 16h11v64
h-14c-9 0 -16 7 -16 16zM432 208c0 9 7 16 16 16h16v1v62v1h-16c-9 0 -16 7 -16 16s7 16 16 16h16c19 0 32 -16 32 -33v-62c0 -17 -13 -33 -32 -33h-16c-9 0 -16 7 -16 16z" />
    <glyph glyph-name="uniE01C" unicode="battery_empty" 
d="M16 194v124c0 32 27 58 59 58h282c32 0 59 -26 59 -58v-124c0 -32 -27 -58 -59 -58h-282c-32 0 -59 26 -59 58zM48 194c0 -14 12 -26 27 -26h282c15 0 27 12 27 26v124c0 14 -12 26 -27 26h-282c-15 0 -27 -12 -27 -26v-124zM72 208v96c0 7 6 16 16 16h56
c7 0 16 -6 16 -16v-96c0 -7 -6 -16 -16 -16h-56c-7 0 -16 6 -16 16zM104 224h24v64h-24v-64zM432 208c0 9 7 16 16 16h16v1v62v1h-16c-9 0 -16 7 -16 16s7 16 16 16h16c19 0 32 -16 32 -33v-62c0 -17 -13 -33 -32 -33h-16c-9 0 -16 7 -16 16z" />
    <glyph glyph-name="uniE01D" unicode="battery_full_alt" 
d="M16 194v124c0 32 27 58 59 58h282c32 0 59 -26 59 -58v-124c0 -32 -27 -58 -59 -58h-282c-32 0 -59 26 -59 58zM48 194c0 -14 12 -26 27 -26h282c15 0 27 12 27 26v124c0 14 -12 26 -27 26h-282c-15 0 -27 -12 -27 -26v-124zM72 208v96c0 7 6 16 16 16h256
c7 0 16 -6 16 -16v-96c0 -7 -6 -16 -16 -16h-256c-7 0 -16 6 -16 16zM104 224h224v64h-224v-64zM432 208c0 9 7 16 16 16h16v1v62v1h-16c-9 0 -16 7 -16 16s7 16 16 16h16c19 0 32 -16 32 -33v-62c0 -17 -13 -33 -32 -33h-16c-9 0 -16 7 -16 16z" />
    <glyph glyph-name="uniE01E" unicode="battery_full" 
d="M16 194v124c0 32 27 58 59 58h282c32 0 59 -26 59 -58v-124c0 -32 -27 -58 -59 -58h-282c-32 0 -59 26 -59 58zM48 194c0 -14 12 -26 27 -26h282c15 0 27 12 27 26v124c0 14 -12 26 -27 26h-282c-15 0 -27 -12 -27 -26v-124zM72 208v8v8v8v8v8v8v8v8v8v8v8v8
c0 7 6 16 16 16h256c7 0 16 -6 16 -16v-8v-8v-8v-8v-8v-8v-8v-8v-8v-8v-8v-8c0 -7 -6 -16 -16 -16h-256c-7 0 -16 6 -16 16zM432 208c0 9 7 16 16 16h16v1v62v1h-16c-9 0 -16 7 -16 16s7 16 16 16h16c19 0 32 -16 32 -33v-62c0 -17 -13 -33 -32 -33h-16c-9 0 -16 7 -16 16z
" />
    <glyph glyph-name="uniE01F" unicode="battery" 
d="M16 194v124c0 32 27 58 59 58h282c32 0 59 -26 59 -58v-124c0 -32 -27 -58 -59 -58h-282c-32 0 -59 26 -59 58zM48 194c0 -14 12 -26 27 -26h282c15 0 27 12 27 26v124c0 14 -12 26 -27 26h-282c-15 0 -27 -12 -27 -26v-124zM432 208c0 9 7 16 16 16h16v1v62v1h-16
c-9 0 -16 7 -16 16s7 16 16 16h16c19 0 32 -16 32 -33v-62c0 -17 -13 -33 -32 -33h-16c-9 0 -16 7 -16 16z" />
    <glyph glyph-name="uniE020" unicode="bill" 
d="M16 144v64v96v64c0 10 9 16 16 16h64h160h160h64c9 0 16 -7 16 -16v-64v-96v-64c0 -10 -9 -16 -16 -16h-64h-160h-160h-64c-10 0 -16 9 -16 16zM48 160h29c-5 14 -15 24 -29 29v-29zM48 222c31 -6 56 -31 62 -62h82c-20 24 -32 59 -32 96s12 72 32 96h-82
c-6 -31 -31 -56 -62 -62v-68zM48 323c14 5 24 15 29 29h-29v-29zM88 240v32c0 9 7 16 16 16s16 -7 16 -16v-32c0 -9 -7 -16 -16 -16s-16 7 -16 16zM192 256c0 -58 33 -96 64 -96s64 38 64 96s-33 96 -64 96s-64 -38 -64 -96zM320 160h82c6 31 31 56 62 62v68
c-31 6 -56 31 -62 62h-82c20 -24 32 -59 32 -96s-12 -72 -32 -96zM392 240v32c0 9 7 16 16 16s16 -7 16 -16v-32c0 -9 -7 -16 -16 -16s-16 7 -16 16zM435 160h29v29c-14 -5 -24 -15 -29 -29zM435 352c5 -14 15 -24 29 -29v29h-29z" />
    <glyph glyph-name="uniE021" unicode="bin_full" 
d="M48 384c0 9 7 16 16 16h48h40v24c0 31 25 56 56 56h96c31 0 56 -25 56 -56v-24h40h48c9 0 16 -7 16 -16s-7 -16 -16 -16h-32v-280c0 -31 -25 -56 -56 -56h-208c-31 0 -56 25 -56 56v280h-32c-9 0 -16 7 -16 16zM128 88c0 -13 11 -24 24 -24h208c13 0 24 11 24 24v280h-40
h-176h-40v-280zM184 400h144v24c0 13 -11 24 -24 24h-96c-13 0 -24 -11 -24 -24v-24zM192 152v128c0 9 7 16 16 16s16 -7 16 -16v-128c0 -9 -7 -16 -16 -16s-16 7 -16 16zM288 152v128c0 9 7 16 16 16s16 -7 16 -16v-128c0 -9 -7 -16 -16 -16s-16 7 -16 16z" />
    <glyph glyph-name="uniE022" unicode="bin" 
d="M48 384c0 9 7 16 16 16h48h40v24c0 31 25 56 56 56h96c31 0 56 -25 56 -56v-24h40h48c9 0 16 -7 16 -16s-7 -16 -16 -16h-32v-280c0 -31 -25 -56 -56 -56h-208c-31 0 -56 25 -56 56v280h-32c-9 0 -16 7 -16 16zM128 88c0 -13 11 -24 24 -24h208c13 0 24 11 24 24v280h-40
h-176h-40v-280zM184 400h144v24c0 13 -11 24 -24 24h-96c-13 0 -24 -11 -24 -24v-24z" />
    <glyph glyph-name="uniE023" unicode="bolt_alt" 
d="M85 38l87 202h-40s-3 0 -5 1c-9 3 -14 13 -10 21l96 224c2 5 8 10 15 10h184c3 0 6 -1 8 -2c8 -5 10 -16 5 -23l-142 -199h73c4 0 8 -2 11 -5c7 -6 7 -17 0 -23l-256 -224c-3 -3 -10 -5 -16 -3c-9 3 -14 13 -10 21zM142 90l171 150h-61c-9 0 -17 8 -16 17c0 3 2 6 3 8
l142 199h-142l-83 -192h40c9 0 17 -8 16 -17c0 -2 -1 -4 -1 -5z" />
    <glyph glyph-name="uniE024" unicode="bolt" 
d="M82 40l113 184h-67c-3 0 -8 2 -11 5c-6 7 -6 17 1 23l288 240c5 4 11 5 17 2c8 -4 12 -14 7 -22l-113 -184h67c3 0 8 -2 11 -5c6 -7 6 -17 -1 -23l-288 -240c-5 -4 -11 -5 -17 -2c-8 4 -12 14 -7 22zM161 107l179 149h-52c-9 0 -17 8 -16 17c0 3 1 6 2 7l77 125
l-179 -149h52c9 0 17 -8 16 -17c0 -3 -1 -6 -2 -7z" />
    <glyph glyph-name="uniE025" unicode="book_sign" 
d="M80 32v408c0 31 25 56 56 56h240c31 0 56 -25 56 -56v-408c0 -9 -8 -17 -17 -16c-3 0 -7 2 -9 3l-150 113l-150 -113c-7 -6 -19 -4 -24 4c-2 3 -2 7 -2 9zM112 64l134 101c5 4 14 4 20 0l134 -101v376c0 13 -11 24 -24 24h-240c-13 0 -24 -11 -24 -24v-376z" />
    <glyph glyph-name="uniE026" unicode="book_text" 
d="M32 136v320c0 10 9 16 16 16h128c33 0 63 -17 80 -43c17 26 47 43 80 43h128c10 0 16 -9 16 -16v-320c0 -10 -9 -16 -16 -16h-128c-35 0 -64 -29 -64 -64c0 -9 -7 -16 -16 -16s-16 7 -16 16c0 35 -29 64 -64 64h-128c-9 0 -16 7 -16 16zM64 152h112c25 0 47 -9 64 -24
v248c0 35 -29 64 -64 64h-112v-288zM96 200c0 9 7 16 16 16h80c9 0 16 -7 16 -16s-7 -16 -16 -16h-80c-9 0 -16 7 -16 16zM96 264c0 9 7 16 16 16h80c9 0 16 -7 16 -16s-7 -16 -16 -16h-80c-9 0 -16 7 -16 16zM96 328c0 9 7 16 16 16h80c9 0 16 -7 16 -16s-7 -16 -16 -16
h-80c-9 0 -16 7 -16 16zM96 392c0 9 7 16 16 16h80c9 0 16 -7 16 -16s-7 -16 -16 -16h-80c-9 0 -16 7 -16 16zM272 128c17 15 39 24 64 24h112v288h-112c-35 0 -64 -29 -64 -64v-248zM304 200c0 9 7 16 16 16h80c9 0 16 -7 16 -16s-7 -16 -16 -16h-80c-9 0 -16 7 -16 16z
M304 264c0 9 7 16 16 16h80c9 0 16 -7 16 -16s-7 -16 -16 -16h-80c-9 0 -16 7 -16 16zM304 328c0 9 7 16 16 16h80c9 0 16 -7 16 -16s-7 -16 -16 -16h-80c-9 0 -16 7 -16 16zM304 392c0 9 7 16 16 16h80c9 0 16 -7 16 -16s-7 -16 -16 -16h-80c-9 0 -16 7 -16 16z" />
    <glyph glyph-name="uniE027" unicode="book_unfold" 
d="M32 136v320c0 10 9 16 16 16h128c33 0 63 -17 80 -43c17 26 47 43 80 43h128c10 0 16 -9 16 -16v-320c0 -10 -9 -16 -16 -16h-128c-35 0 -64 -29 -64 -64c0 -9 -7 -16 -16 -16s-16 7 -16 16c0 35 -29 64 -64 64h-128c-9 0 -16 7 -16 16zM64 152h112c25 0 47 -9 64 -24
v248c0 35 -29 64 -64 64h-112v-288zM272 128c17 15 39 24 64 24h112v288h-112c-35 0 -64 -29 -64 -64v-248z" />
    <glyph glyph-name="uniE028" unicode="book" 
d="M64 96v320c0 35 29 64 64 64h304c10 0 16 -9 16 -16v-320v-96c0 -9 -7 -16 -16 -16h-304c-35 0 -64 29 -64 64zM96 96c0 -18 14 -32 32 -32h288v64h-288c-18 0 -32 -14 -32 -32zM96 151c9 5 20 9 32 9h288v288h-288c-18 0 -32 -14 -32 -32v-265z" />
    <glyph glyph-name="uniE029" unicode="box" 
d="M24 141v230c0 13 5 26 13 36c1 2 3 4 5 5c6 6 12 9 20 12l189 63c3 1 7 1 10 0l189 -63c8 -3 14 -6 20 -12c2 -1 4 -3 5 -5c8 -10 13 -23 13 -36v-230c0 -23 -16 -46 -38 -53l-189 -63l-1 -1h-4h-4l-1 1l-189 63c-22 7 -38 30 -38 53zM56 141c0 -9 8 -20 16 -23l168 -56
v255l-80 27v-72c0 -9 -7 -16 -16 -16s-16 7 -16 16v83l-70 25c-1 -3 -2 -6 -2 -9v-230zM94 401l48 -17l160 56l-46 15zM191 367l65 -22l162 56l-66 22zM272 62l168 56c8 3 16 14 16 23v230c0 3 -1 6 -2 9l-182 -63v-255z" />
    <glyph glyph-name="uniE02A" unicode="broadcast" 
d="M86 86c-94 94 -94 246 0 340c6 6 17 6 23 0s6 -17 0 -23c-81 -81 -81 -213 0 -294c6 -6 6 -17 0 -23s-17 -6 -23 0zM112 256c0 34 18 78 42 102c6 6 17 6 23 0s6 -17 0 -23c-17 -17 -33 -55 -33 -79s16 -62 33 -79c6 -6 6 -17 0 -23s-17 -6 -23 0c-24 24 -42 68 -42 102z
M192 256c0 35 29 64 64 64s64 -29 64 -64s-29 -64 -64 -64s-64 29 -64 64zM224 256c0 -18 14 -32 32 -32s32 14 32 32s-14 32 -32 32s-32 -14 -32 -32zM335 177c17 17 33 55 33 79s-16 62 -33 79c-6 6 -6 17 0 23s17 6 23 0c24 -24 42 -68 42 -102s-18 -78 -42 -102
c-6 -6 -17 -6 -23 0s-6 17 0 23zM403 86c-6 6 -6 17 0 23c81 81 81 213 0 294c-6 6 -6 17 0 23s17 6 23 0c94 -94 94 -246 0 -340c-6 -6 -17 -6 -23 0z" />
    <glyph glyph-name="uniE02B" unicode="bucket" 
d="M24 199c0 23 12 52 28 68l155 160c7 7 17 5 22 0l35 -33v78c0 9 7 16 16 16s16 -7 16 -16v-110l140 -137c7 -6 7 -17 0 -23c-3 -3 -8 -4 -11 -4h-84l-105 -110c-17 -17 -44 -28 -68 -28s-50 11 -67 27l-48 44l-1 1c-17 17 -28 44 -28 67zM56 199c0 -13 8 -35 18 -45
l49 -43v-1c9 -9 32 -18 45 -18s37 9 46 18l109 115c3 3 8 5 12 5h51l-90 88v-14c0 -9 -7 -16 -16 -16s-16 7 -16 16v45l-46 44l-143 -148c-9 -9 -19 -33 -19 -46zM360 88c0 40 53 84 53 84c6 6 16 5 22 0c0 0 53 -44 53 -84c0 -35 -29 -64 -64 -64s-64 29 -64 64zM392 88
c0 -18 14 -32 32 -32s32 14 32 32c0 8 -18 34 -32 49c-13 -14 -32 -41 -32 -49z" />
    <glyph glyph-name="uniE02C" unicode="bug" 
d="M16 192c0 9 7 16 16 16h80v57c-50 8 -88 51 -88 103h32c0 -35 24 -63 57 -70c6 48 36 89 77 110c-23 16 -38 42 -38 72c0 9 7 16 16 16s16 -7 16 -16c0 -31 25 -56 56 -56c1 0 3 -1 4 -1c4 0 8 1 12 1s8 -1 12 -1c1 0 3 1 4 1c31 0 56 25 56 56c0 9 7 16 16 16
s16 -7 16 -16c0 -30 -15 -56 -38 -72c41 -21 71 -62 77 -110c33 7 57 35 57 70c0 9 7 16 16 16s16 -7 16 -16c0 -52 -38 -95 -88 -103v-57h80c9 0 16 -7 16 -16s-7 -16 -16 -16h-81c-1 -12 -4 -24 -8 -35c46 -10 81 -51 81 -101c0 -9 -7 -16 -16 -16s-16 7 -16 16
c0 37 -29 68 -65 72c-26 -38 -69 -64 -119 -64s-93 26 -119 64c-36 -4 -65 -35 -65 -72c0 -9 -7 -16 -16 -16s-16 7 -16 16c0 50 35 91 81 101c-4 11 -7 23 -8 35h-81c-9 0 -16 7 -16 16zM144 192c0 -56 42 -103 96 -111v183h-96v-72zM145 296h111h111c-8 54 -55 96 -111 96
s-103 -42 -111 -96zM272 81c54 8 96 55 96 111v72h-96v-183z" />
    <glyph glyph-name="uniE02D" unicode="build" 
d="M24 72v120c0 7 6 16 16 16h8v16c0 9 3 17 9 23s14 9 23 9h32c9 0 17 -3 23 -9s9 -14 9 -23v-16h72v16c0 9 3 17 9 23s14 9 23 9l-95 95c-5 5 -7 15 0 22l85 85c5 5 15 7 22 0l6 -5l23 22c5 5 15 7 22 0l46 -45c5 -5 7 -16 0 -23l-23 -22l51 -51l22 23c5 5 16 7 23 0
l45 -46c5 -5 7 -15 0 -22l-22 -23l5 -6c5 -5 7 -15 0 -22l-85 -85c-6 -6 -16 -6 -22 0l-15 15v-96c0 -7 -6 -16 -16 -16h-280c-7 0 -16 6 -16 16zM56 88h248v88h-8h-64h-104h-64h-8v-88zM80 208h32v16h-32v-16zM187 362l175 -175l62 62l-124 124v0l-45 46h-1l-5 5zM248 208
h32v16v0h-32v-16zM289 430l22 -23l12 12l-23 22zM407 311l23 -22l11 11l-22 23z" />
    <glyph glyph-name="uniE02E" unicode="cache" 
d="M48 112v96v96v96c0 50 110 64 208 64s208 -14 208 -64v-96v-96v-96c0 -50 -110 -64 -208 -64s-208 14 -208 64zM80 113c9 -12 81 -33 176 -33s168 22 176 33v56c-23 -10 -55 -16 -86 -20c-9 -1 -17 5 -18 14s5 17 14 18c52 7 86 22 90 28v57c-22 -10 -52 -16 -81 -20
c-9 -1 -17 5 -18 14s4 17 13 18c50 7 82 21 86 27v56c-40 -19 -110 -25 -176 -25s-136 6 -176 25v-56c4 -5 35 -20 86 -27c9 -1 15 -9 14 -18s-9 -15 -18 -14c-29 4 -60 9 -82 19v-56c4 -5 36 -20 86 -27c9 -1 14 -9 13 -18s-9 -15 -18 -14c-29 4 -59 10 -81 20v-57zM81 400
c13 -13 85 -32 175 -32c91 0 163 19 175 32c-13 13 -85 32 -175 32c-91 0 -163 -19 -175 -32zM197 109c-6 6 -6 16 0 22l68 69h-57c-2 0 -7 1 -10 4c-7 6 -8 16 -1 23l96 96c6 6 16 6 22 0s6 -16 0 -22l-68 -69h57c9 0 17 -8 16 -17c0 -4 -2 -7 -5 -10l-96 -96
c-6 -6 -16 -6 -22 0z" />
    <glyph glyph-name="uniE02F" unicode="calculator" 
d="M72 72v368c0 18 -3 35 10 47s28 9 46 9h256c18 0 35 3 47 -10s9 -28 9 -46v-368c0 -18 3 -35 -10 -47s-28 -9 -46 -9h-256c-18 0 -35 -3 -47 10s-9 28 -9 46zM104 72c0 -12 0 -20 1 -23c5 -1 11 -1 23 -1h256c12 0 20 0 23 1c1 5 1 11 1 23v368c0 12 0 20 -1 23
c-5 1 -11 1 -23 1h-256c-12 0 -20 0 -23 -1c-1 -5 -1 -11 -1 -23v-368zM136 96v16c0 7 6 16 16 16h80c7 0 16 -6 16 -16v-16c0 -7 -6 -16 -16 -16h-80c-7 0 -16 6 -16 16zM136 160v16c0 7 6 16 16 16h16c7 0 16 -6 16 -16v-16c0 -7 -6 -16 -16 -16h-16c-7 0 -16 6 -16 16z
M136 224v16c0 7 6 16 16 16h16c7 0 16 -6 16 -16v-16c0 -7 -6 -16 -16 -16h-16c-7 0 -16 6 -16 16zM136 288v16c0 7 6 16 16 16h16c7 0 16 -6 16 -16v-16c0 -7 -6 -16 -16 -16h-16c-7 0 -16 6 -16 16zM136 368v8v8v8v8v8v8c0 7 6 16 16 16h208c7 0 16 -6 16 -16v-8v-8v-8v-8
v-8v-8c0 -7 -6 -16 -16 -16h-208c-7 0 -16 6 -16 16zM200 160v16c0 7 6 16 16 16h16c7 0 16 -6 16 -16v-16c0 -7 -6 -16 -16 -16h-16c-7 0 -16 6 -16 16zM200 224v16c0 7 6 16 16 16h16c7 0 16 -6 16 -16v-16c0 -7 -6 -16 -16 -16h-16c-7 0 -16 6 -16 16zM200 288v16
c0 7 6 16 16 16h16c7 0 16 -6 16 -16v-16c0 -7 -6 -16 -16 -16h-16c-7 0 -16 6 -16 16zM264 96v16c0 7 6 16 16 16h16c7 0 16 -6 16 -16v-16c0 -7 -6 -16 -16 -16h-16c-7 0 -16 6 -16 16zM264 160v16c0 7 6 16 16 16h16c7 0 16 -6 16 -16v-16c0 -7 -6 -16 -16 -16h-16
c-7 0 -16 6 -16 16zM264 224v16c0 7 6 16 16 16h16c7 0 16 -6 16 -16v-16c0 -7 -6 -16 -16 -16h-16c-7 0 -16 6 -16 16zM264 288v16c0 7 6 16 16 16h16c7 0 16 -6 16 -16v-16c0 -7 -6 -16 -16 -16h-16c-7 0 -16 6 -16 16zM328 96v80c0 7 6 16 16 16h16c7 0 16 -6 16 -16v-80
c0 -7 -6 -16 -16 -16h-16c-7 0 -16 6 -16 16zM328 224v16c0 7 6 16 16 16h16c7 0 16 -6 16 -16v-16c0 -7 -6 -16 -16 -16h-16c-7 0 -16 6 -16 16zM328 288v16c0 7 6 16 16 16h16c7 0 16 -6 16 -16v-16c0 -7 -6 -16 -16 -16h-16c-7 0 -16 6 -16 16z" />
    <glyph glyph-name="uniE030" unicode="calendar_day" 
d="M48 104v224v80c0 31 25 56 56 56h40v8c0 9 7 16 16 16s16 -7 16 -16v-8h160v8c0 9 7 16 16 16s16 -7 16 -16v-8h40c31 0 56 -25 56 -56v-80v-224c0 -31 -25 -56 -56 -56h-304c-31 0 -56 25 -56 56zM80 104c0 -13 11 -24 24 -24h304c13 0 24 11 24 24v208h-352v-208z
M80 344h352v64c0 13 -11 24 -24 24h-40v-40c0 -9 -7 -16 -16 -16s-16 7 -16 16v40h-160v-40c0 -9 -7 -16 -16 -16s-16 7 -16 16v40h-40c-13 0 -24 -11 -24 -24v-64z" />
    <glyph glyph-name="uniE031" unicode="calendar_from" 
d="M48 104v224v80c0 31 25 56 56 56h40v8c0 9 7 16 16 16s16 -7 16 -16v-8h160v8c0 9 7 16 16 16s16 -7 16 -16v-8h40c31 0 56 -25 56 -56v-80v-224c0 -31 -25 -56 -56 -56h-304c-31 0 -56 25 -56 56zM80 104c0 -13 11 -24 24 -24h304c13 0 24 11 24 24v208h-352v-208z
M80 344h352v64c0 13 -11 24 -24 24h-40v-40c0 -9 -7 -16 -16 -16s-16 7 -16 16v40h-160v-40c0 -9 -7 -16 -16 -16s-16 7 -16 16v40h-40c-13 0 -24 -11 -24 -24v-64zM120 200c0 9 7 16 16 16h201l-36 37c-6 6 -6 16 0 22s16 6 22 0l64 -64c5 -5 7 -15 0 -22l-64 -64
c-6 -6 -16 -6 -22 0s-6 16 0 22l36 37h-201c-9 0 -16 7 -16 16z" />
    <glyph glyph-name="uniE032" unicode="calendar_month" 
d="M48 104v48v88v88v80c0 31 25 56 56 56h40v8c0 9 7 16 16 16s16 -7 16 -16v-8h160v8c0 9 7 16 16 16s16 -7 16 -16v-8h40c31 0 56 -25 56 -56v-80v-88v-88v-48c0 -31 -25 -56 -56 -56h-88h-128h-88c-31 0 -56 25 -56 56zM80 104c0 -13 11 -24 24 -24h72v56h-96v-32z
M80 168h96v56h-96v-56zM80 256h96v56h-96v-56zM80 344h112h128h112v64c0 13 -11 24 -24 24h-40v-40c0 -9 -7 -16 -16 -16s-16 7 -16 16v40h-160v-40c0 -9 -7 -16 -16 -16s-16 7 -16 16v40h-40c-13 0 -24 -11 -24 -24v-64zM208 80h96v56h-96v-56zM208 168h96v56h-96v-56z
M208 256h96v56h-96v-56zM336 80h72c13 0 24 11 24 24v32h-96v-56zM336 168h96v56h-96v-56zM336 256h96v56h-96v-56z" />
    <glyph glyph-name="uniE033" unicode="calendar_period" 
d="M48 104v224v80c0 31 25 56 56 56h40v8c0 9 7 16 16 16s16 -7 16 -16v-8h160v8c0 9 7 16 16 16s16 -7 16 -16v-8h40c31 0 56 -25 56 -56v-80v-224c0 -31 -25 -56 -56 -56h-304c-31 0 -56 25 -56 56zM80 104c0 -13 11 -24 24 -24h304c13 0 24 11 24 24v208h-352v-208z
M80 344h352v64c0 13 -11 24 -24 24h-40v-40c0 -9 -7 -16 -16 -16s-16 7 -16 16v40h-160v-40c0 -9 -7 -16 -16 -16s-16 7 -16 16v40h-40c-13 0 -24 -11 -24 -24v-64zM125 189c-7 7 -5 17 0 22l64 64c6 6 16 6 22 0s6 -16 0 -22l-36 -37h162l-36 37c-6 6 -6 16 0 22s16 6 22 0
l64 -64c5 -5 7 -15 0 -22l-64 -64c-6 -6 -16 -6 -22 0s-6 16 0 22l36 37h-162l36 -37c6 -6 6 -16 0 -22s-16 -6 -22 0z" />
    <glyph glyph-name="uniE034" unicode="calendar_to" 
d="M48 104v224v80c0 31 25 56 56 56h40v8c0 9 7 16 16 16s16 -7 16 -16v-8h160v8c0 9 7 16 16 16s16 -7 16 -16v-8h40c31 0 56 -25 56 -56v-80v-224c0 -31 -25 -56 -56 -56h-304c-31 0 -56 25 -56 56zM80 104c0 -13 11 -24 24 -24h304c13 0 24 11 24 24v208h-352v-208z
M80 344h352v64c0 13 -11 24 -24 24h-40v-40c0 -9 -7 -16 -16 -16s-16 7 -16 16v40h-160v-40c0 -9 -7 -16 -16 -16s-16 7 -16 16v40h-40c-13 0 -24 -11 -24 -24v-64zM125 189c-7 7 -5 17 0 22l64 64c6 6 16 6 22 0s6 -16 0 -22l-36 -37h201c9 0 16 -7 16 -16s-7 -16 -16 -16
h-201l36 -37c6 -6 6 -16 0 -22s-16 -6 -22 0z" />
    <glyph glyph-name="uniE035" unicode="calendar_week" 
d="M48 104v48v88v88v80c0 31 25 56 56 56h40v8c0 9 7 16 16 16s16 -7 16 -16v-8h160v8c0 9 7 16 16 16s16 -7 16 -16v-8h40c31 0 56 -25 56 -56v-80v-88v-88v-48c0 -31 -25 -56 -56 -56h-304c-31 0 -56 25 -56 56zM80 104c0 -13 11 -24 24 -24h304c13 0 24 11 24 24v32h-352
v-32zM80 168h352v56h-352v-56zM80 256h352v56h-352v-56zM80 344h352v64c0 13 -11 24 -24 24h-40v-40c0 -9 -7 -16 -16 -16s-16 7 -16 16v40h-160v-40c0 -9 -7 -16 -16 -16s-16 7 -16 16v40h-40c-13 0 -24 -11 -24 -24v-64z" />
    <glyph glyph-name="uniE036" unicode="call" 
d="M29 427c0 32 27 58 59 58h64c29 0 54 -21 58 -50c2 -15 9 -43 14 -57c2 -7 4 -13 4 -20c0 -15 -6 -31 -17 -42l-18 -18c24 -37 69 -82 105 -105l18 18c11 10 27 17 42 17c7 0 14 -2 20 -4c14 -5 42 -12 57 -14c29 -4 50 -29 50 -58v-1v-64c0 -32 -26 -59 -58 -59h-6
c-59 6 -142 36 -191 68c-46 29 -104 87 -133 133c-32 50 -62 133 -68 192v6zM61 427v-3c5 -52 35 -134 63 -178c26 -41 82 -97 123 -123c44 -28 126 -57 177 -63h3c15 0 26 12 26 27v64v1c0 12 -11 24 -23 26c-19 2 -45 9 -63 16c-1 1 -7 2 -9 2c-5 0 -16 -5 -19 -8l-27 -27
c-4 -4 -12 -6 -19 -2c-48 28 -106 86 -134 134c-3 5 -3 14 2 19l27 27c3 3 8 14 8 19c0 2 -1 8 -2 9c-7 18 -14 44 -16 63c-2 12 -14 23 -26 23h-64c-15 0 -27 -11 -27 -26z" />
    <glyph glyph-name="uniE037" unicode="camera" 
d="M16 104v240c0 31 25 56 56 56h78l28 55c3 5 8 9 14 9h128c6 0 11 -4 14 -9l28 -55h78c31 0 56 -25 56 -56v-240c0 -31 -25 -56 -56 -56h-368c-31 0 -56 25 -56 56zM48 104c0 -13 11 -24 24 -24h368c13 0 24 11 24 24v240c0 13 -11 24 -24 24h-88c-6 0 -11 4 -14 9l-28 55
h-108l-28 -55c-3 -5 -8 -9 -14 -9h-88c-13 0 -24 -11 -24 -24v-240zM144 224c0 62 50 112 112 112s112 -50 112 -112s-50 -112 -112 -112s-112 50 -112 112zM176 224c0 -44 36 -80 80 -80s80 36 80 80s-36 80 -80 80s-80 -36 -80 -80z" />
    <glyph glyph-name="uniE038" unicode="car" 
d="M16 137v126c0 23 18 41 41 41h2l23 117c5 29 31 51 60 51h220c29 0 55 -22 60 -51l23 -117h10c23 0 41 -18 41 -41v-126c0 -22 -18 -40 -40 -41v-56c0 -7 -6 -16 -16 -16h-80c-7 0 -16 6 -16 16v56h-176v-56c0 -7 -6 -16 -16 -16h-80c-7 0 -16 6 -16 16v56
c-20 1 -40 18 -40 41zM48 137c0 -5 4 -9 9 -9h15c10 0 16 -9 16 -16v-56h48v56c0 10 9 16 16 16h208c10 0 16 -9 16 -16v-56h48v56c0 10 9 16 16 16h15c5 0 9 4 9 9v126c0 5 -4 9 -9 9h-23c-8 0 -15 7 -16 13l-25 130c-2 13 -16 25 -29 25h-220c-13 0 -27 -12 -29 -25
l-25 -130c-2 -8 -9 -13 -16 -13h-15c-5 0 -9 -4 -9 -9v-126zM80 208c0 18 14 32 32 32s32 -14 32 -32s-14 -32 -32 -32s-32 14 -32 32zM176 176v64c0 7 6 16 16 16h128c7 0 16 -6 16 -16v-64c0 -7 -6 -16 -16 -16h-128c-7 0 -16 6 -16 16zM208 192h96v32h-96v-32zM368 208
c0 18 14 32 32 32s32 -14 32 -32s-14 -32 -32 -32s-32 14 -32 32z" />
    <glyph glyph-name="uniE039" unicode="caret_e" 
d="M189 133c-6 6 -6 16 0 22l100 101l-100 101c-6 6 -6 16 0 22s16 6 22 0l112 -112c7 -7 5 -17 0 -22l-112 -112c-6 -6 -16 -6 -22 0z" />
    <glyph glyph-name="uniE03A" unicode="caret_n" 
d="M133 189c-6 6 -6 16 0 22l112 112c7 7 17 5 22 0l112 -112c6 -6 6 -16 0 -22s-16 -6 -22 0l-101 100l-101 -100c-6 -6 -16 -6 -22 0z" />
    <glyph glyph-name="uniE03B" unicode="caret_ns" 
d="M133 205c-6 6 -6 16 0 22s16 6 22 0l101 -100l101 100c6 6 16 6 22 0s6 -16 0 -22l-112 -112c-5 -5 -15 -7 -22 0zM133 285c-6 6 -6 16 0 22l112 112c7 7 17 5 22 0l112 -112c6 -6 6 -16 0 -22s-16 -6 -22 0l-101 100l-101 -100c-6 -6 -16 -6 -22 0z" />
    <glyph glyph-name="uniE03C" unicode="caret_s" 
d="M133 301c-6 6 -6 16 0 22s16 6 22 0l101 -100l101 100c6 6 16 6 22 0s6 -16 0 -22l-112 -112c-5 -5 -15 -7 -22 0z" />
    <glyph glyph-name="uniE03D" unicode="caret_w" 
d="M189 245c-5 5 -7 15 0 22l112 112c6 6 16 6 22 0s6 -16 0 -22l-100 -101l100 -101c6 -6 6 -16 0 -22s-16 -6 -22 0z" />
    <glyph glyph-name="uniE03E" unicode="carrot" 
d="M20 34c-1 3 0 7 1 9c1 3 56 178 238 360c22 22 54 8 80 -11v84c0 9 7 16 16 16s16 -7 16 -16v-81l32 33c6 6 17 6 23 0s6 -17 0 -23l-33 -33h81c9 0 16 -7 16 -16s-7 -16 -16 -16h-84c20 -26 33 -57 11 -79c-182 -182 -358 -238 -360 -238c-9 -3 -19 2 -21 11zM64 66
c58 24 184 88 314 218c2 2 -2 28 -35 61s-59 37 -61 35c-15 -15 -30 -30 -43 -45l27 -27c6 -6 6 -17 0 -23s-16 -6 -22 0l-26 26c-12 -14 -23 -28 -33 -41l22 -22c6 -6 6 -16 0 -22s-17 -6 -23 0l-18 18c-54 -76 -86 -140 -102 -178z" />
    <glyph glyph-name="uniE03F" unicode="cash_cycle_ccw" 
d="M32 304v80c0 9 7 16 16 16s16 -7 16 -16v-41l62 62c37 35 98 59 146 59c115 0 208 -93 208 -208s-93 -208 -208 -208c-86 0 -174 65 -199 147c-3 8 2 17 10 20s17 -2 20 -10c21 -68 98 -125 169 -125c97 0 176 79 176 176s-78 176 -176 176c-39 0 -98 -25 -126 -53
l-59 -59h41c9 0 16 -7 16 -16s-7 -16 -16 -16h-80c-7 0 -16 6 -16 16zM184 208c0 9 7 16 16 16s16 -7 16 -16c0 -10 14 -26 40 -31v67c-40 10 -72 23 -72 60c0 36 35 58 72 63v9c0 9 7 16 16 16s16 -7 16 -16v-9c38 -5 72 -27 72 -63c0 -9 -7 -16 -16 -16s-16 7 -16 16
c0 10 -14 26 -40 31v-67c40 -10 72 -23 72 -60c0 -36 -34 -58 -72 -63v-9c0 -9 -7 -16 -16 -16s-16 7 -16 16v9c-37 5 -72 27 -72 63zM216 304c0 -10 6 -17 40 -27v58c-26 -5 -40 -21 -40 -31zM288 177c26 5 40 21 40 31s-6 17 -40 27v-58z" />
    <glyph glyph-name="uniE040" unicode="cash_cycle_cw" 
d="M32 256c0 115 93 208 208 208c52 0 101 -17 155 -68l53 -53v41c0 9 7 16 16 16s16 -7 16 -16v-80c0 -10 -9 -16 -16 -16h-80c-9 0 -16 7 -16 16s7 16 16 16h41l-59 59c-28 28 -87 53 -126 53c-98 0 -176 -79 -176 -176s79 -176 176 -176c71 0 148 57 169 125
c3 8 12 13 20 10s13 -12 10 -20c-25 -82 -113 -147 -199 -147c-115 0 -208 93 -208 208zM152 208c0 9 7 16 16 16s16 -7 16 -16c0 -12 20 -32 56 -32s56 20 56 32s-9 19 -60 32c-45 11 -84 23 -84 64c0 36 35 58 72 63v17c0 9 7 16 16 16s16 -7 16 -16v-17
c38 -5 72 -27 72 -63c0 -9 -7 -16 -16 -16s-16 7 -16 16c0 12 -20 32 -56 32s-56 -20 -56 -32s9 -19 60 -32c45 -11 84 -23 84 -64c0 -36 -34 -58 -72 -63v-17c0 -9 -7 -16 -16 -16s-16 7 -16 16v17c-37 5 -72 27 -72 63z" />
    <glyph glyph-name="uniE041" unicode="center_alt" 
d="M32 196c-2 8 3 17 11 19s18 -3 20 -11c16 -60 81 -125 141 -141c8 -2 13 -12 11 -20s-11 -13 -19 -11c-73 20 -144 91 -164 164zM32 316c20 73 91 144 164 164c8 2 17 -3 19 -11s-3 -18 -11 -20c-60 -16 -125 -81 -141 -141c-2 -8 -12 -13 -20 -11s-13 11 -11 19z
M160 256c0 53 43 96 96 96s96 -43 96 -96s-43 -96 -96 -96s-96 43 -96 96zM297 43c-2 8 3 18 11 20c60 16 125 81 141 141c2 8 12 13 20 11s13 -11 11 -19c-20 -73 -91 -144 -164 -164c-8 -2 -17 3 -19 11zM297 469c2 8 11 13 19 11c73 -20 144 -91 164 -164
c2 -8 -3 -17 -11 -19s-18 3 -20 11c-16 60 -81 125 -141 141c-8 2 -13 12 -11 20z" />
    <glyph glyph-name="uniE042" unicode="center" 
d="M16 256c0 9 7 16 16 16h49c8 84 75 151 159 159v49c0 9 7 16 16 16s16 -7 16 -16v-49c84 -8 151 -75 159 -159h49c9 0 16 -7 16 -16s-7 -16 -16 -16h-49c-8 -84 -75 -151 -159 -159v-49c0 -9 -7 -16 -16 -16s-16 7 -16 16v49c-84 8 -151 75 -159 159h-49
c-9 0 -16 7 -16 16zM112 256c0 -80 64 -144 144 -144s144 64 144 144s-64 144 -144 144s-144 -64 -144 -144zM208 256c0 27 21 48 48 48s48 -21 48 -48s-21 -48 -48 -48s-48 21 -48 48zM240 256c0 -9 7 -16 16 -16s16 7 16 16s-7 16 -16 16s-16 -7 -16 -16z" />
    <glyph glyph-name="uniE043" unicode="certificate" 
d="M24 160v256c0 31 25 56 56 56h352c31 0 56 -25 56 -56v-256c0 -31 -25 -56 -56 -56c-9 0 -16 7 -16 16s7 16 16 16c13 0 24 11 24 24v256c0 13 -11 24 -24 24h-352c-13 0 -24 -11 -24 -24v-256c0 -13 11 -24 24 -24h108c9 0 16 -7 16 -16s-7 -16 -16 -16h-108
c-31 0 -56 25 -56 56zM88 192c0 9 7 16 16 16h56c9 0 16 -7 16 -16s-7 -16 -16 -16h-56c-9 0 -16 7 -16 16zM88 256c0 9 7 16 16 16h56c9 0 16 -7 16 -16s-7 -16 -16 -16h-56c-9 0 -16 7 -16 16zM88 320c0 9 7 16 16 16h88c9 0 16 -7 16 -16s-7 -16 -16 -16h-88
c-9 0 -16 7 -16 16zM88 384c0 9 7 16 16 16h304c9 0 16 -7 16 -16s-7 -16 -16 -16h-304c-9 0 -16 7 -16 16zM216 214c0 54 44 98 98 98s98 -44 98 -98c0 -32 -16 -60 -39 -78l23 -84c1 -3 0 -7 -1 -10c-3 -9 -13 -12 -21 -8l-60 27l-60 -27c-3 -1 -6 -3 -9 -2
c-9 2 -15 11 -13 20l23 84c-23 18 -39 46 -39 78zM248 214c0 -24 14 -46 33 -57v0c10 -5 21 -9 33 -9s23 4 33 9v0c19 11 33 33 33 57c0 36 -30 66 -66 66s-66 -30 -66 -66zM272 77l26 12v28c-5 1 -9 2 -14 4zM284 214c0 17 13 30 30 30s30 -13 30 -30s-13 -30 -30 -30
s-30 13 -30 30zM330 89l26 -12l-12 44c-5 -2 -9 -3 -14 -4v-28z" />
    <glyph glyph-name="uniE044" unicode="charging_off" 
d="M124 243l216 248c3 4 10 6 17 4c9 -3 14 -13 10 -21l-78 -178h87c2 0 7 -1 10 -3c7 -5 8 -17 2 -24l-216 -248c-3 -4 -10 -6 -17 -4c-9 3 -14 13 -10 21l78 178h-87c-2 0 -7 1 -10 3c-7 5 -8 17 -2 24zM171 248h76c9 0 17 -8 16 -17c0 -2 -1 -4 -1 -5l-46 -105l125 143
h-76c-9 0 -17 8 -16 17c0 2 1 4 1 5l46 105z" />
    <glyph glyph-name="uniE045" unicode="charging_on" 
d="M14 256c0 9 7 16 16 16h64c9 0 16 -7 16 -16s-7 -16 -16 -16h-64c-9 0 -16 7 -16 16zM29 170c-3 8 1 18 9 21l60 22c8 3 18 -1 21 -9s-1 -18 -9 -21l-61 -22c-8 -3 -17 1 -20 9zM29 342c3 8 12 12 20 9l61 -22c8 -3 12 -13 9 -21s-13 -12 -21 -9l-60 22
c-8 3 -12 13 -9 21zM124 243l216 248c3 4 10 6 17 4c9 -3 14 -13 10 -21l-78 -178h87c2 0 7 -1 10 -3c7 -5 8 -17 2 -24l-216 -248c-3 -4 -10 -6 -17 -4c-9 3 -14 13 -10 21l78 178h-87c-2 0 -7 1 -10 3c-7 5 -8 17 -2 24zM171 248h76c9 0 17 -8 16 -17c0 -2 -1 -4 -1 -5
l-46 -105l125 143h-76c-9 0 -17 8 -16 17c0 2 1 4 1 5l46 105zM393 204c3 8 13 12 21 9l60 -22c8 -3 12 -13 9 -21s-12 -12 -20 -9l-61 22c-8 3 -12 13 -9 21zM393 308c-3 8 1 18 9 21l61 22c8 3 17 -1 20 -9s-1 -18 -9 -21l-60 -22c-8 -3 -18 1 -21 9zM402 256
c0 9 7 16 16 16h64c9 0 16 -7 16 -16s-7 -16 -16 -16h-64c-9 0 -16 7 -16 16z" />
    <glyph glyph-name="uniE046" unicode="chart_area" 
d="M32 64v24v360c0 9 7 16 16 16s16 -7 16 -16v-319l60 66c1 1 3 2 4 3l116 70l102 180c5 8 15 10 23 5c3 -2 6 -6 7 -9l77 -340h11c9 0 16 -7 16 -16s-7 -16 -16 -16h-400v-8c0 -9 -7 -16 -16 -16s-16 7 -16 16zM84 104h336l-66 292l-84 -148c-1 -2 -4 -5 -6 -6l-118 -71z
" />
    <glyph glyph-name="uniE047" unicode="chart_bars" 
d="M32 64v24v360c0 9 7 16 16 16s16 -7 16 -16v-344h16v80c0 7 6 16 16 16h80c7 0 16 -6 16 -16v-80h16v152c0 7 6 16 16 16h80c7 0 16 -6 16 -16v-152h16v336c0 7 6 16 16 16h80c7 0 16 -6 16 -16v-336h16c9 0 16 -7 16 -16s-7 -16 -16 -16h-32h-80h-48h-80h-48h-80h-32v-8
c0 -9 -7 -16 -16 -16s-16 7 -16 16zM112 104h48v64h-48v-64zM240 104h48v136h-48v-136zM368 104h48v320h-48v-320z" />
    <glyph glyph-name="uniE048" unicode="chart_line" 
d="M32 64v192v192c0 9 7 16 16 16s16 -7 16 -16v-92c16 24 39 44 72 44c49 0 68 -64 85 -128h138c13 65 17 131 17 136c0 9 7 16 16 16s16 -7 16 -16c0 0 0 -66 -13 -136h69c9 0 16 -7 16 -16s-7 -16 -16 -16h-75c-16 -67 -46 -128 -101 -128c-59 0 -86 64 -103 128h-121
v-176c0 -9 -7 -16 -16 -16s-16 7 -16 16zM68 272h109c-13 52 -22 96 -41 96c-40 0 -60 -64 -68 -96zM229 240c14 -52 28 -96 59 -96c30 0 50 44 63 96h-122z" />
    <glyph glyph-name="uniE049" unicode="chart_nodes" 
d="M32 64v192v192c0 9 7 16 16 16s16 -7 16 -16v-141l33 47c-5 9 -9 19 -9 30c0 31 25 56 56 56s56 -25 56 -56c0 -16 -7 -31 -18 -41l32 -71h94l39 94c-12 10 -19 25 -19 42c0 31 25 56 56 56s56 -25 56 -56s-25 -56 -56 -56h-7l-34 -80h121c9 0 16 -7 16 -16
s-7 -16 -16 -16h-134l-29 -70c12 -10 19 -25 19 -42c0 -31 -25 -56 -56 -56s-56 25 -56 56c0 16 7 31 18 41l-32 71h-130v-176c0 -9 -7 -16 -16 -16s-16 7 -16 16zM79 272h100l-26 57c-3 0 -6 -1 -9 -1c-8 0 -16 2 -23 5zM120 384c0 -7 3 -13 7 -17l1 -1c4 -4 10 -6 16 -6
c4 0 7 1 10 2l1 1v0c7 4 13 12 13 21c0 13 -11 24 -24 24s-24 -11 -24 -24zM229 240l26 -57c3 0 6 1 9 1h7l24 56h-66zM240 128c0 -13 11 -24 24 -24s24 11 24 24c0 9 -5 18 -13 22h-1h-1c-3 1 -6 2 -9 2c-4 0 -8 0 -11 -2v-1c-8 -4 -13 -12 -13 -21zM360 408
c0 -10 6 -18 14 -22v0c3 -1 7 -2 10 -2c13 0 24 11 24 24s-11 24 -24 24s-24 -11 -24 -24z" />
    <glyph glyph-name="uniE04A" unicode="chart_pie_alt" 
d="M16 256c0 133 107 240 240 240s240 -107 240 -240s-107 -240 -240 -240s-240 107 -240 240zM48 256c0 -115 93 -208 208 -208c94 0 173 62 199 147l-202 45c-4 1 -8 4 -10 7s-3 6 -3 9v207c-107 -8 -192 -98 -192 -207zM272 280l170 70c-32 63 -96 107 -170 113v-183z
M309 261l153 -34c1 10 2 19 2 29c0 22 -3 44 -10 64z" />
    <glyph glyph-name="uniE04B" unicode="chart_pie" 
d="M32 256c0 100 65 184 155 213c8 3 17 -2 20 -10s-2 -17 -10 -20c-77 -25 -133 -98 -133 -183c0 -106 86 -192 192 -192c86 0 159 57 183 135c3 8 12 13 20 10s14 -12 11 -20c-28 -91 -113 -157 -214 -157c-124 0 -224 100 -224 224zM240 256v208c0 9 7 16 16 16
c124 0 224 -100 224 -224c0 -9 -7 -16 -16 -16h-208c-7 0 -16 6 -16 16zM272 272h175c-8 93 -82 167 -175 175v-175z" />
    <glyph glyph-name="uniE04C" unicode="chart_stacked_area" 
d="M32 64v24v360c0 9 7 16 16 16s16 -7 16 -16v-319l60 66c1 1 3 2 4 3l116 70l102 180c5 8 15 10 23 5c3 -2 6 -6 7 -9l77 -340h11c9 0 16 -7 16 -16s-7 -16 -16 -16h-400v-8c0 -9 -7 -16 -16 -16s-16 7 -16 16zM113 104h302l-61 126l-88 -74l-6 -3l-118 -34zM121 144l8 4
c1 0 2 1 3 1l116 34l102 85c7 6 18 4 23 -3c1 -1 1 -2 1 -2l18 -38l-38 171l-84 -148c-1 -2 -4 -5 -6 -6l-118 -71z" />
    <glyph glyph-name="uniE04D" unicode="chart_stacked_bars" 
d="M32 64v24v360c0 9 7 16 16 16s16 -7 16 -16v-344h16v40v56c0 7 6 16 16 16h80c7 0 16 -6 16 -16v-56v-40h16v64v88c0 7 6 16 16 16h80c7 0 16 -6 16 -16v-88v-64h16v129v207c0 7 6 16 16 16h80c7 0 16 -6 16 -16v-207v-129h16c9 0 16 -7 16 -16s-7 -16 -16 -16h-32h-80
h-48h-80h-48h-80h-32v-8c0 -9 -7 -16 -16 -16s-16 7 -16 16zM112 104h48v24h-48v-24zM112 160h48v24h-48v-24zM240 104h48v48h-48v-48zM240 184h48v56h-48v-56zM368 104h48v113h-48v-113zM368 249h48v175h-48v-175z" />
    <glyph glyph-name="uniE04E" unicode="chart_stripes" 
d="M32 64v24v360c0 9 7 16 16 16s16 -7 16 -16v-344h32v128c0 9 7 16 16 16s16 -7 16 -16v-128h32v208c0 9 7 16 16 16s16 -7 16 -16v-208h32v160c0 9 7 16 16 16s16 -7 16 -16v-160h32v344c0 9 7 16 16 16s16 -7 16 -16v-344h32v232c0 9 7 16 16 16s16 -7 16 -16v-232h32
v80c0 9 7 16 16 16s16 -7 16 -16v-80h16c9 0 16 -7 16 -16s-7 -16 -16 -16h-32h-64h-64h-64h-64h-64h-48v-8c0 -9 -7 -16 -16 -16s-16 7 -16 16z" />
    <glyph glyph-name="uniE04F" unicode="chart_symetric_bars" 
d="M32 64v192v192c0 9 7 16 16 16s16 -7 16 -16v-176h16v152c0 7 6 16 16 16h80c7 0 16 -6 16 -16v-152h32h80h32v176c0 7 6 16 16 16h80c7 0 16 -6 16 -16v-176h16c9 0 16 -7 16 -16s-7 -16 -16 -16h-32h-80h-32v-152c0 -7 -6 -16 -16 -16h-80c-7 0 -16 6 -16 16v152h-32
h-80h-32v-176c0 -9 -7 -16 -16 -16s-16 7 -16 16zM112 272h48v136h-48v-136zM240 104h48v136h-48v-136zM368 272h48v160h-48v-160z" />
    <glyph glyph-name="uniE050" unicode="chip" 
d="M24 192c0 9 7 16 16 16h32c9 0 16 -7 16 -16s-7 -16 -16 -16h-32c-9 0 -16 7 -16 16zM24 256c0 9 7 16 16 16h32c9 0 16 -7 16 -16s-7 -16 -16 -16h-32c-9 0 -16 7 -16 16zM24 320c0 9 7 16 16 16h32c9 0 16 -7 16 -16s-7 -16 -16 -16h-32c-9 0 -16 7 -16 16zM112 133
v246c0 9 12 21 21 21h246c9 0 21 -12 21 -21v-246c0 -9 -12 -21 -21 -21h-246c-9 0 -21 12 -21 21zM144 144h224v224h-224v-224zM176 40v32c0 9 7 16 16 16s16 -7 16 -16v-32c0 -9 -7 -16 -16 -16s-16 7 -16 16zM176 440v32c0 9 7 16 16 16s16 -7 16 -16v-32
c0 -9 -7 -16 -16 -16s-16 7 -16 16zM240 40v32c0 9 7 16 16 16s16 -7 16 -16v-32c0 -9 -7 -16 -16 -16s-16 7 -16 16zM240 440v32c0 9 7 16 16 16s16 -7 16 -16v-32c0 -9 -7 -16 -16 -16s-16 7 -16 16zM304 40v32c0 9 7 16 16 16s16 -7 16 -16v-32c0 -9 -7 -16 -16 -16
s-16 7 -16 16zM304 440v32c0 9 7 16 16 16s16 -7 16 -16v-32c0 -9 -7 -16 -16 -16s-16 7 -16 16zM424 192c0 9 7 16 16 16h32c9 0 16 -7 16 -16s-7 -16 -16 -16h-32c-9 0 -16 7 -16 16zM424 256c0 9 7 16 16 16h32c9 0 16 -7 16 -16s-7 -16 -16 -16h-32c-9 0 -16 7 -16 16z
M424 320c0 9 7 16 16 16h32c9 0 16 -7 16 -16s-7 -16 -16 -16h-32c-9 0 -16 7 -16 16z" />
    <glyph glyph-name="uniE051" unicode="circle_add" 
d="M32 256c0 124 100 224 224 224s224 -100 224 -224s-100 -224 -224 -224s-224 100 -224 224zM64 256c0 -106 86 -192 192 -192s192 86 192 192s-86 192 -192 192s-192 -86 -192 -192zM120 256c0 9 7 16 16 16h104v104c0 9 7 16 16 16s16 -7 16 -16v-104h104
c9 0 16 -7 16 -16s-7 -16 -16 -16h-104v-104c0 -9 -7 -16 -16 -16s-16 7 -16 16v104h-104c-9 0 -16 7 -16 16z" />
    <glyph glyph-name="uniE052" unicode="circle_delete" 
d="M32 256c0 124 100 224 224 224s224 -100 224 -224s-100 -224 -224 -224s-224 100 -224 224zM64 256c0 -106 86 -192 192 -192s192 86 192 192s-86 192 -192 192s-192 -86 -192 -192zM157 157c-6 6 -6 16 0 22l76 77l-76 77c-6 6 -6 16 0 22s16 6 22 0l77 -76l77 76
c6 6 16 6 22 0s6 -16 0 -22l-76 -77l76 -77c6 -6 6 -16 0 -22s-16 -6 -22 0l-77 76l-77 -76c-6 -6 -16 -6 -22 0z" />
    <glyph glyph-name="uniE053" unicode="circle_ok" 
d="M32 256c0 124 100 224 224 224s224 -100 224 -224s-100 -224 -224 -224s-224 100 -224 224zM64 256c0 -106 86 -192 192 -192s192 86 192 192s-86 192 -192 192s-192 -86 -192 -192zM125 221c-6 6 -6 16 0 22s16 6 22 0l61 -60l157 156c6 6 16 6 22 0s6 -16 0 -22
l-168 -168c-5 -5 -15 -7 -22 0z" />
    <glyph glyph-name="uniE054" unicode="circle_remove" 
d="M32 256c0 124 100 224 224 224s224 -100 224 -224s-100 -224 -224 -224s-224 100 -224 224zM64 256c0 -106 86 -192 192 -192s192 86 192 192s-86 192 -192 192s-192 -86 -192 -192zM120 256c0 9 7 16 16 16h240c9 0 16 -7 16 -16s-7 -16 -16 -16h-240c-9 0 -16 7 -16 16
z" />
    <glyph glyph-name="uniE055" unicode="circle" 
d="M32 256c0 124 100 224 224 224s224 -100 224 -224s-100 -224 -224 -224s-224 100 -224 224zM64 256c0 -106 86 -192 192 -192s192 86 192 192s-86 192 -192 192s-192 -86 -192 -192z" />
    <glyph glyph-name="uniE056" unicode="clipboard_copy" 
d="M48 72v336c0 31 25 56 56 56h77c9 19 29 32 51 32h48c17 0 32 -17 42 -32h86c31 0 56 -25 56 -56v-82c0 -9 -7 -16 -16 -16s-16 7 -16 16v82c0 13 -11 24 -24 24h-48c10 -7 16 -19 16 -32v-40c0 -7 -6 -16 -16 -16h-208c-7 0 -16 6 -16 16v40c0 13 14 25 25 32h-57
c-13 0 -24 -11 -24 -24v-336c0 -13 11 -24 24 -24h105c9 0 16 -7 16 -16s-7 -16 -16 -16h-105c-31 0 -56 25 -56 56zM168 376h176v24c0 4 -4 8 -8 8h-16c-10 0 -16 9 -16 16v16c0 13 -11 24 -24 24h-48c-13 0 -24 -11 -24 -24v-16c0 -10 -9 -16 -16 -16h-16
c-4 0 -8 -4 -8 -8v-24zM208 160c0 80 64 144 144 144s144 -64 144 -144s-64 -144 -144 -144s-144 64 -144 144zM240 160c0 -62 50 -112 112 -112s112 50 112 112s-50 112 -112 112s-112 -50 -112 -112zM272 160c0 9 7 16 16 16h48v48c0 9 7 16 16 16s16 -7 16 -16v-48h48
c9 0 16 -7 16 -16s-7 -16 -16 -16h-48v-48c0 -9 -7 -16 -16 -16s-16 7 -16 16v48h-48c-9 0 -16 7 -16 16z" />
    <glyph glyph-name="uniE057" unicode="clipboard_paste" 
d="M48 72v336c0 31 25 56 56 56h77c9 19 29 32 51 32h48c17 0 32 -17 42 -32h86c31 0 56 -25 56 -56v-82c0 -9 -7 -16 -16 -16s-16 7 -16 16v82c0 13 -11 24 -24 24h-48c10 -7 16 -19 16 -32v-40c0 -7 -6 -16 -16 -16h-208c-7 0 -16 6 -16 16v40c0 13 14 25 25 32h-57
c-13 0 -24 -11 -24 -24v-336c0 -13 11 -24 24 -24h105c9 0 16 -7 16 -16s-7 -16 -16 -16h-105c-31 0 -56 25 -56 56zM168 376h176v24c0 4 -4 8 -8 8h-16c-10 0 -16 9 -16 16v16c0 13 -11 24 -24 24h-48c-13 0 -24 -11 -24 -24v-16c0 -10 -9 -16 -16 -16h-16
c-4 0 -8 -4 -8 -8v-24zM208 160c0 80 64 144 144 144s144 -64 144 -144s-64 -144 -144 -144s-144 64 -144 144zM240 160c0 -62 50 -112 112 -112s112 50 112 112s-50 112 -112 112s-112 -50 -112 -112zM277 149c-6 6 -6 16 0 22s16 6 22 0l37 -36v89c0 9 7 16 16 16
s16 -7 16 -16v-89l37 36c6 6 16 6 22 0s6 -16 0 -22l-64 -64c-1 -1 -1 -2 -2 -2c-3 -2 -6 -3 -9 -3s-6 1 -8 2l-3 3z" />
    <glyph glyph-name="uniE058" unicode="clipboard" 
d="M48 72v336c0 31 25 56 56 56h77c9 19 29 32 51 32h48c17 0 32 -17 42 -32h86c31 0 56 -25 56 -56v-336c0 -31 -25 -56 -56 -56h-304c-31 0 -56 25 -56 56zM80 72c0 -13 11 -24 24 -24h304c13 0 24 11 24 24v336c0 13 -11 24 -24 24h-48c10 -7 16 -19 16 -32v-40
c0 -7 -6 -16 -16 -16h-208c-7 0 -16 6 -16 16v40c0 13 14 25 25 32h-57c-13 0 -24 -11 -24 -24v-336zM168 376h176v24c0 4 -4 8 -8 8h-16c-10 0 -16 9 -16 16v16c0 13 -11 24 -24 24h-48c-13 0 -24 -11 -24 -24v-16c0 -10 -9 -16 -16 -16h-16c-4 0 -8 -4 -8 -8v-24z" />
    <glyph glyph-name="uniE059" unicode="clock" 
d="M32 256c0 124 100 224 224 224s224 -100 224 -224s-100 -224 -224 -224s-224 100 -224 224zM64 256c0 -106 86 -192 192 -192s192 86 192 192s-86 192 -192 192s-192 -86 -192 -192zM240 256v128c0 9 7 16 16 16s16 -7 16 -16v-118l87 -44c8 -4 11 -13 7 -21
s-13 -11 -21 -7l-96 48c-5 3 -9 8 -9 14z" />
    <glyph glyph-name="uniE05A" unicode="clone_add" 
d="M48 208v200c0 31 25 56 56 56h200c31 0 56 -25 56 -56v-9c0 -9 -7 -16 -16 -16s-16 7 -16 16v9c0 13 -11 24 -24 24h-200c-13 0 -24 -11 -24 -24v-200c0 -13 11 -24 24 -24h9c9 0 16 -7 16 -16s-7 -16 -16 -16h-9c-31 0 -56 25 -56 56zM160 104v192c0 31 25 56 56 56h192
c31 0 56 -25 56 -56v-192c0 -31 -25 -56 -56 -56h-192c-31 0 -56 25 -56 56zM192 104c0 -13 11 -24 24 -24h192c13 0 24 11 24 24v192c0 13 -11 24 -24 24h-192c-13 0 -24 -11 -24 -24v-192zM232 200c0 9 7 16 16 16h48v48c0 9 7 16 16 16s16 -7 16 -16v-48h48
c9 0 16 -7 16 -16s-7 -16 -16 -16h-48v-48c0 -9 -7 -16 -16 -16s-16 7 -16 16v48h-48c-9 0 -16 7 -16 16z" />
    <glyph glyph-name="uniE05B" unicode="clone_remove" 
d="M48 208v200c0 31 25 56 56 56h200c31 0 56 -25 56 -56v-9c0 -9 -7 -16 -16 -16s-16 7 -16 16v9c0 13 -11 24 -24 24h-200c-13 0 -24 -11 -24 -24v-200c0 -13 11 -24 24 -24h9c9 0 16 -7 16 -16s-7 -16 -16 -16h-9c-31 0 -56 25 -56 56zM160 104v192c0 31 25 56 56 56h192
c31 0 56 -25 56 -56v-192c0 -31 -25 -56 -56 -56h-192c-31 0 -56 25 -56 56zM192 104c0 -13 11 -24 24 -24h192c13 0 24 11 24 24v192c0 13 -11 24 -24 24h-192c-13 0 -24 -11 -24 -24v-192zM232 200c0 9 7 16 16 16h128c9 0 16 -7 16 -16s-7 -16 -16 -16h-128
c-9 0 -16 7 -16 16z" />
    <glyph glyph-name="uniE05C" unicode="clone" 
d="M48 208v200c0 31 25 56 56 56h200c31 0 56 -25 56 -56v-9c0 -9 -7 -16 -16 -16s-16 7 -16 16v9c0 13 -11 24 -24 24h-200c-13 0 -24 -11 -24 -24v-200c0 -13 11 -24 24 -24h9c9 0 16 -7 16 -16s-7 -16 -16 -16h-9c-31 0 -56 25 -56 56zM160 104v192c0 31 25 56 56 56h192
c31 0 56 -25 56 -56v-192c0 -31 -25 -56 -56 -56h-192c-31 0 -56 25 -56 56zM192 104c0 -13 11 -24 24 -24h192c13 0 24 11 24 24v192c0 13 -11 24 -24 24h-192c-13 0 -24 -11 -24 -24v-192z" />
    <glyph glyph-name="uniE05D" unicode="cloud_download" 
d="M24 272c0 66 54 120 120 120c7 0 13 0 23 -2c18 55 73 98 133 98c77 0 140 -63 140 -140c0 -3 -1 -6 -1 -10c27 -17 49 -52 49 -86c0 -52 -41 -96 -92 -100h-5h-63c-9 0 -16 7 -16 16s7 16 16 16h59c43 2 69 32 69 68c0 23 -19 53 -40 62c-7 3 -10 11 -9 17
c1 4 1 13 1 17c0 60 -48 108 -108 108c-49 0 -97 -41 -106 -89c-2 -11 -14 -15 -21 -12c-7 2 -22 5 -29 5c-49 0 -88 -39 -88 -88s39 -88 88 -88h72c9 0 16 -7 16 -16s-7 -16 -16 -16h-72c-67 0 -120 54 -120 120zM205 85c-6 6 -6 16 0 22s16 6 22 0l29 -28v153
c0 9 7 16 16 16s16 -7 16 -16v-153l29 28c6 6 16 6 22 0s6 -16 0 -22l-56 -56c-5 -5 -15 -7 -22 0zM388 152h3h1h-4z" />
    <glyph glyph-name="uniE05E" unicode="cloud_ok" 
d="M24 208c0 66 54 120 120 120c7 0 13 0 23 -2c18 55 73 98 133 98c77 0 140 -63 140 -140c0 -3 -1 -6 -1 -10c27 -17 49 -52 49 -86c0 -52 -41 -96 -92 -100h-5h-247c-67 0 -120 54 -120 120zM56 208c0 -49 39 -88 88 -88h243c43 2 69 32 69 68c0 23 -19 53 -40 62
c-7 3 -10 11 -9 17c1 4 1 13 1 17c0 60 -48 108 -108 108c-49 0 -97 -41 -106 -89c-2 -11 -14 -15 -21 -12c-7 2 -22 5 -29 5c-49 0 -88 -39 -88 -88zM157 217c-6 6 -6 16 0 22s16 6 22 0l45 -44l109 108c6 6 16 6 22 0s6 -16 0 -22l-120 -120c-5 -5 -15 -7 -22 0zM388 88h3
h1h-4z" />
    <glyph glyph-name="uniE05F" unicode="cloud_upload" 
d="M24 208c0 66 54 120 120 120c7 0 13 0 23 -2c18 55 73 98 133 98c77 0 140 -63 140 -140c0 -3 -1 -6 -1 -10c27 -17 49 -52 49 -86c0 -52 -41 -96 -92 -100h-5h-63c-9 0 -16 7 -16 16s7 16 16 16h59c43 2 69 32 69 68c0 23 -19 53 -40 62c-7 3 -10 11 -9 17
c1 4 1 13 1 17c0 60 -48 108 -108 108c-49 0 -97 -41 -106 -89c-2 -11 -14 -15 -21 -12c-7 2 -22 5 -29 5c-49 0 -88 -39 -88 -88s39 -88 88 -88h72c9 0 16 -7 16 -16s-7 -16 -16 -16h-72c-67 0 -120 54 -120 120zM205 189c-6 6 -6 16 0 22l56 56c7 7 17 5 22 0l56 -56
c6 -6 6 -16 0 -22s-16 -6 -22 0l-29 28v-153c0 -9 -7 -16 -16 -16s-16 7 -16 16v153l-29 -28c-6 -6 -16 -6 -22 0zM388 88h3h1h-4z" />
    <glyph glyph-name="uniE060" unicode="cloud" 
d="M24 208c0 66 54 120 120 120c7 0 13 0 23 -2c18 55 73 98 133 98c77 0 140 -63 140 -140c0 -3 -1 -6 -1 -10c27 -17 49 -52 49 -86c0 -52 -41 -96 -92 -100h-5h-247c-67 0 -120 54 -120 120zM56 208c0 -49 39 -88 88 -88h243c43 2 69 32 69 68c0 23 -19 53 -40 62
c-7 3 -10 11 -9 17c1 4 1 13 1 17c0 60 -48 108 -108 108c-49 0 -97 -41 -106 -89c-2 -11 -14 -15 -21 -12c-7 2 -22 5 -29 5c-49 0 -88 -39 -88 -88zM388 88h3h1h-4z" />
    <glyph glyph-name="uniE061" unicode="code_add" 
d="M64 256c0 9 7 16 16 16h32c13 0 24 11 24 24v112c0 31 25 56 56 56h24c9 0 16 -7 16 -16s-7 -16 -16 -16h-24c-13 0 -24 -11 -24 -24v-112c0 -16 -7 -30 -17 -40c10 -10 17 -24 17 -40v-112c0 -13 11 -24 24 -24h12c9 0 16 -7 16 -16s-7 -16 -16 -16h-12
c-31 0 -56 25 -56 56v112c0 13 -11 24 -24 24h-32c-9 0 -16 7 -16 16zM208 160c0 80 64 144 144 144s144 -64 144 -144s-64 -144 -144 -144s-144 64 -144 144zM240 160c0 -62 50 -112 112 -112s112 50 112 112s-50 112 -112 112s-112 -50 -112 -112zM272 160c0 9 7 16 16 16
h48v48c0 9 7 16 16 16s16 -7 16 -16v-48h48c9 0 16 -7 16 -16s-7 -16 -16 -16h-48v-48c0 -9 -7 -16 -16 -16s-16 7 -16 16v48h-48c-9 0 -16 7 -16 16zM296 448c0 9 7 16 16 16h24c31 0 56 -25 56 -56v-74c0 -9 -7 -16 -16 -16s-16 7 -16 16v74c0 13 -11 24 -24 24h-24
c-9 0 -16 7 -16 16z" />
    <glyph glyph-name="uniE062" unicode="code_delete" 
d="M64 256c0 9 7 16 16 16h32c13 0 24 11 24 24v112c0 31 25 56 56 56h24c9 0 16 -7 16 -16s-7 -16 -16 -16h-24c-13 0 -24 -11 -24 -24v-112c0 -16 -7 -30 -17 -40c10 -10 17 -24 17 -40v-112c0 -13 11 -24 24 -24h12c9 0 16 -7 16 -16s-7 -16 -16 -16h-12
c-31 0 -56 25 -56 56v112c0 13 -11 24 -24 24h-32c-9 0 -16 7 -16 16zM208 160c0 80 64 144 144 144s144 -64 144 -144s-64 -144 -144 -144s-144 64 -144 144zM240 160c0 -62 50 -112 112 -112s112 50 112 112s-50 112 -112 112s-112 -50 -112 -112zM293 101
c-6 6 -6 16 0 22l36 37l-36 37c-6 6 -6 16 0 22s16 6 22 0l37 -36l37 36c6 6 16 6 22 0s6 -16 0 -22l-36 -37l36 -37c6 -6 6 -16 0 -22s-16 -6 -22 0l-37 36l-37 -36c-6 -6 -16 -6 -22 0zM296 448c0 9 7 16 16 16h24c31 0 56 -25 56 -56v-74c0 -9 -7 -16 -16 -16
s-16 7 -16 16v74c0 13 -11 24 -24 24h-24c-9 0 -16 7 -16 16z" />
    <glyph glyph-name="uniE063" unicode="code_download" 
d="M64 256c0 9 7 16 16 16h32c13 0 24 11 24 24v112c0 31 25 56 56 56h24c9 0 16 -7 16 -16s-7 -16 -16 -16h-24c-13 0 -24 -11 -24 -24v-112c0 -16 -7 -30 -17 -40c10 -10 17 -24 17 -40v-112c0 -13 11 -24 24 -24h12c9 0 16 -7 16 -16s-7 -16 -16 -16h-12
c-31 0 -56 25 -56 56v112c0 13 -11 24 -24 24h-32c-9 0 -16 7 -16 16zM208 160c0 80 64 144 144 144s144 -64 144 -144s-64 -144 -144 -144s-144 64 -144 144zM240 160c0 -62 50 -112 112 -112s112 50 112 112s-50 112 -112 112s-112 -50 -112 -112zM277 149
c-6 6 -6 16 0 22s16 6 22 0l37 -36v89c0 9 7 16 16 16s16 -7 16 -16v-89l37 36c6 6 16 6 22 0s6 -16 0 -22l-64 -64c-5 -5 -15 -7 -22 0zM296 448c0 9 7 16 16 16h24c31 0 56 -25 56 -56v-74c0 -9 -7 -16 -16 -16s-16 7 -16 16v74c0 13 -11 24 -24 24h-24c-9 0 -16 7 -16 16
z" />
    <glyph glyph-name="uniE064" unicode="code_ok" 
d="M64 256c0 9 7 16 16 16h32c13 0 24 11 24 24v112c0 31 25 56 56 56h24c9 0 16 -7 16 -16s-7 -16 -16 -16h-24c-13 0 -24 -11 -24 -24v-112c0 -16 -7 -30 -17 -40c10 -10 17 -24 17 -40v-112c0 -13 11 -24 24 -24h12c9 0 16 -7 16 -16s-7 -16 -16 -16h-12
c-31 0 -56 25 -56 56v112c0 13 -11 24 -24 24h-32c-9 0 -16 7 -16 16zM208 160c0 80 64 144 144 144s144 -64 144 -144s-64 -144 -144 -144s-144 64 -144 144zM240 160c0 -62 50 -112 112 -112s112 50 112 112s-50 112 -112 112s-112 -50 -112 -112zM277 141
c-6 6 -6 16 0 22s16 6 22 0l37 -36l69 68c6 6 16 6 22 0s6 -16 0 -22l-80 -80c-5 -5 -15 -7 -22 0zM296 448c0 9 7 16 16 16h24c31 0 56 -25 56 -56v-74c0 -9 -7 -16 -16 -16s-16 7 -16 16v74c0 13 -11 24 -24 24h-24c-9 0 -16 7 -16 16z" />
    <glyph glyph-name="uniE065" unicode="code_pending" 
d="M64 256c0 9 7 16 16 16h32c13 0 24 11 24 24v112c0 31 25 56 56 56h24c9 0 16 -7 16 -16s-7 -16 -16 -16h-24c-13 0 -24 -11 -24 -24v-112c0 -16 -7 -30 -17 -40c10 -10 17 -24 17 -40v-112c0 -13 11 -24 24 -24h12c9 0 16 -7 16 -16s-7 -16 -16 -16h-12
c-31 0 -56 25 -56 56v112c0 13 -11 24 -24 24h-32c-9 0 -16 7 -16 16zM208 160c0 80 64 144 144 144s144 -64 144 -144s-64 -144 -144 -144s-144 64 -144 144zM240 160c0 -62 50 -112 112 -112s112 50 112 112s-50 112 -112 112s-112 -50 -112 -112zM264 160
c0 13 11 24 24 24s24 -11 24 -24s-11 -24 -24 -24s-24 11 -24 24zM296 448c0 9 7 16 16 16h24c31 0 56 -25 56 -56v-74c0 -9 -7 -16 -16 -16s-16 7 -16 16v74c0 13 -11 24 -24 24h-24c-9 0 -16 7 -16 16zM328 160c0 13 11 24 24 24s24 -11 24 -24s-11 -24 -24 -24
s-24 11 -24 24zM392 160c0 13 11 24 24 24s24 -11 24 -24s-11 -24 -24 -24s-24 11 -24 24z" />
    <glyph glyph-name="uniE066" unicode="code_remove" 
d="M64 256c0 9 7 16 16 16h32c13 0 24 11 24 24v112c0 31 25 56 56 56h24c9 0 16 -7 16 -16s-7 -16 -16 -16h-24c-13 0 -24 -11 -24 -24v-112c0 -16 -7 -30 -17 -40c10 -10 17 -24 17 -40v-112c0 -13 11 -24 24 -24h12c9 0 16 -7 16 -16s-7 -16 -16 -16h-12
c-31 0 -56 25 -56 56v112c0 13 -11 24 -24 24h-32c-9 0 -16 7 -16 16zM208 160c0 80 64 144 144 144s144 -64 144 -144s-64 -144 -144 -144s-144 64 -144 144zM240 160c0 -62 50 -112 112 -112s112 50 112 112s-50 112 -112 112s-112 -50 -112 -112zM272 160c0 9 7 16 16 16
h128c9 0 16 -7 16 -16s-7 -16 -16 -16h-128c-9 0 -16 7 -16 16zM296 448c0 9 7 16 16 16h24c31 0 56 -25 56 -56v-74c0 -9 -7 -16 -16 -16s-16 7 -16 16v74c0 13 -11 24 -24 24h-24c-9 0 -16 7 -16 16z" />
    <glyph glyph-name="uniE067" unicode="code_schedule" 
d="M64 256c0 9 7 16 16 16h32c13 0 24 11 24 24v112c0 31 25 56 56 56h24c9 0 16 -7 16 -16s-7 -16 -16 -16h-24c-13 0 -24 -11 -24 -24v-112c0 -16 -7 -30 -17 -40c10 -10 17 -24 17 -40v-112c0 -13 11 -24 24 -24h12c9 0 16 -7 16 -16s-7 -16 -16 -16h-12
c-31 0 -56 25 -56 56v112c0 13 -11 24 -24 24h-32c-9 0 -16 7 -16 16zM208 160c0 80 64 144 144 144s144 -64 144 -144s-64 -144 -144 -144s-144 64 -144 144zM240 160c0 -62 50 -112 112 -112s112 50 112 112s-50 112 -112 112s-112 -50 -112 -112zM296 448c0 9 7 16 16 16
h24c31 0 56 -25 56 -56v-74c0 -9 -7 -16 -16 -16s-16 7 -16 16v74c0 13 -11 24 -24 24h-24c-9 0 -16 7 -16 16zM336 160v64c0 9 7 16 16 16s16 -7 16 -16v-57l35 -36c6 -6 6 -16 0 -22s-16 -6 -22 0l-40 40c-2 2 -5 7 -5 11z" />
    <glyph glyph-name="uniE068" unicode="code_upload" 
d="M64 256c0 9 7 16 16 16h32c13 0 24 11 24 24v112c0 31 25 56 56 56h24c9 0 16 -7 16 -16s-7 -16 -16 -16h-24c-13 0 -24 -11 -24 -24v-112c0 -16 -7 -30 -17 -40c10 -10 17 -24 17 -40v-112c0 -13 11 -24 24 -24h12c9 0 16 -7 16 -16s-7 -16 -16 -16h-12
c-31 0 -56 25 -56 56v112c0 13 -11 24 -24 24h-32c-9 0 -16 7 -16 16zM208 160c0 80 64 144 144 144s144 -64 144 -144s-64 -144 -144 -144s-144 64 -144 144zM240 160c0 -62 50 -112 112 -112s112 50 112 112s-50 112 -112 112s-112 -50 -112 -112zM277 149
c-6 6 -6 16 0 22l64 64c7 7 17 5 22 0l64 -64c6 -6 6 -16 0 -22s-16 -6 -22 0l-37 36v-89c0 -9 -7 -16 -16 -16s-16 7 -16 16v89l-37 -36c-6 -6 -16 -6 -22 0zM296 448c0 9 7 16 16 16h24c31 0 56 -25 56 -56v-74c0 -9 -7 -16 -16 -16s-16 7 -16 16v74c0 13 -11 24 -24 24
h-24c-9 0 -16 7 -16 16z" />
    <glyph glyph-name="uniE069" unicode="code" 
d="M64 256c0 9 7 16 16 16h32c13 0 24 11 24 24v112c0 31 25 56 56 56h24c9 0 16 -7 16 -16s-7 -16 -16 -16h-24c-13 0 -24 -11 -24 -24v-112c0 -16 -7 -30 -17 -40c10 -10 17 -24 17 -40v-112c0 -13 11 -24 24 -24h24c9 0 16 -7 16 -16s-7 -16 -16 -16h-24
c-31 0 -56 25 -56 56v112c0 13 -11 24 -24 24h-32c-9 0 -16 7 -16 16zM296 64c0 9 7 16 16 16h24c13 0 24 11 24 24v112c0 16 7 30 17 40c-10 10 -17 24 -17 40v112c0 13 -11 24 -24 24h-24c-9 0 -16 7 -16 16s7 16 16 16h24c31 0 56 -25 56 -56v-112c0 -13 11 -24 24 -24
h32c9 0 16 -7 16 -16s-7 -16 -16 -16h-32c-13 0 -24 -11 -24 -24v-112c0 -31 -25 -56 -56 -56h-24c-9 0 -16 7 -16 16z" />
    <glyph glyph-name="uniE06A" unicode="coffee_to_go" 
d="M72 344v40c0 31 25 56 56 56h24l28 34c3 4 7 6 12 6h128c5 0 9 -2 12 -6l28 -34h24c31 0 56 -25 56 -56v-40c0 -7 -6 -16 -16 -16h-17l-20 -245c-2 -29 -27 -51 -56 -51h-150c-29 0 -54 22 -56 51l-20 245h-17c-7 0 -16 6 -16 16zM104 360h304v24c0 13 -11 24 -24 24h-32
c-5 0 -9 2 -12 6l-28 34h-112l-28 -34c-3 -4 -7 -6 -12 -6h-32c-13 0 -24 -11 -24 -24v-24zM137 328l5 -56h228l5 56h-238zM144 240l5 -56h214l5 56h-224zM152 152l5 -66c1 -12 12 -22 24 -22h150c12 0 23 10 24 22l5 66h-208z" />
    <glyph glyph-name="uniE06B" unicode="coffee" 
d="M48 48c0 9 7 16 16 16h384c9 0 16 -7 16 -16s-7 -16 -16 -16h-384c-9 0 -16 7 -16 16zM112 192v128c0 10 9 16 16 16h256h64c10 0 16 -9 16 -16v-16c0 -39 -28 -70 -64 -78v-2v-32c0 -53 -43 -96 -96 -96h-96c-53 0 -96 43 -96 96zM144 192c0 -35 29 -64 64 -64h96
c35 0 64 29 64 64v32v16v64h-224v-112zM160 416c0 25 20 43 21 44c7 6 16 5 22 -1s6 -16 0 -22c0 0 -11 -14 -11 -21s11 -21 11 -21c6 -6 6 -16 0 -22c-7 -6 -16 -6 -22 -1c-2 2 -21 19 -21 44zM224 416c0 25 20 43 21 44c7 6 16 5 22 -1s6 -16 0 -22c0 0 -11 -14 -11 -21
s11 -21 11 -21c6 -6 6 -16 0 -22c-7 -6 -16 -6 -22 -1c-2 2 -21 19 -21 44zM288 416c0 25 20 43 21 44c7 6 16 5 22 -1s6 -16 0 -22c0 0 -11 -14 -11 -21s11 -21 11 -21c6 -6 6 -16 0 -22c-7 -6 -16 -6 -22 -1c-2 2 -21 19 -21 44zM400 259c19 7 32 24 32 45h-32v-45z" />
    <glyph glyph-name="uniE06C" unicode="comment_empty" 
d="M32 71v337c0 31 25 56 56 56h336c31 0 56 -25 56 -56v-248c0 -31 -25 -56 -56 -56h-281l-56 -56c-14 -14 -35 -12 -46 0c-6 6 -9 14 -9 23zM64 71l61 60c3 3 7 5 11 5h288c13 0 24 11 24 24v248c0 13 -11 24 -24 24h-336c-13 0 -24 -11 -24 -24v-337z" />
    <glyph glyph-name="uniE06D" unicode="comment" 
d="M32 71v337c0 31 25 56 56 56h336c31 0 56 -25 56 -56v-248c0 -31 -25 -56 -56 -56h-281l-56 -56c-14 -14 -35 -12 -46 0c-6 6 -9 14 -9 23zM64 71l61 60c3 3 7 5 11 5h288c13 0 24 11 24 24v248c0 13 -11 24 -24 24h-336c-13 0 -24 -11 -24 -24v-337zM128 216
c0 9 7 16 16 16h80c9 0 16 -7 16 -16s-7 -16 -16 -16h-80c-9 0 -16 7 -16 16zM128 280c0 9 7 16 16 16h224c9 0 16 -7 16 -16s-7 -16 -16 -16h-224c-9 0 -16 7 -16 16zM128 344c0 9 7 16 16 16h224c9 0 16 -7 16 -16s-7 -16 -16 -16h-224c-9 0 -16 7 -16 16z" />
    <glyph glyph-name="uniE06E" unicode="compass_alt" 
d="M89 55l84 185h-45c-9 0 -16 7 -16 16s7 16 16 16h60l23 51c-12 12 -19 27 -19 45c0 30 20 55 48 62v34c0 9 7 16 16 16s16 -7 16 -16v-34c28 -7 48 -32 48 -62c0 -18 -7 -33 -19 -45l23 -51h60c9 0 16 -7 16 -16s-7 -16 -16 -16h-45l84 -185c4 -8 0 -18 -8 -22
s-17 0 -21 8l-90 199h-96l-90 -199c-4 -8 -13 -12 -21 -8s-12 14 -8 22zM223 272h66l-15 34c-6 -2 -12 -2 -18 -2s-12 0 -18 2zM224 368c0 -18 14 -32 32 -32s32 14 32 32s-14 32 -32 32s-32 -14 -32 -32z" />
    <glyph glyph-name="uniE06F" unicode="compass" 
d="M32 256c0 124 100 224 224 224s224 -100 224 -224s-100 -224 -224 -224s-224 100 -224 224zM64 256c0 -106 86 -192 192 -192s192 86 192 192s-86 192 -192 192s-192 -86 -192 -192zM150 171l46 135c1 4 5 8 10 10l135 46c1 0 6 1 9 0c9 -2 15 -12 12 -21l-46 -135
c-1 -4 -5 -8 -10 -10l-135 -46c-1 0 -6 -1 -9 0c-9 2 -15 12 -12 21zM191 191l98 32l32 98l-98 -32z" />
    <glyph glyph-name="uniE070" unicode="creditcard" 
d="M16 144v144v8v8v8v8v48c0 31 25 56 56 56h368c31 0 56 -25 56 -56v-48v-8v-8v-8v-8v-144c0 -31 -25 -56 -56 -56h-368c-31 0 -56 25 -56 56zM48 144c0 -13 11 -24 24 -24h368c13 0 24 11 24 24v128h-416v-128zM48 336h416v32c0 13 -11 24 -24 24h-368
c-13 0 -24 -11 -24 -24v-32zM80 168c0 9 7 16 16 16h80c9 0 16 -7 16 -16s-7 -16 -16 -16h-80c-9 0 -16 7 -16 16z" />
    <glyph glyph-name="uniE071" unicode="cube" 
d="M24 141v230c0 13 5 26 13 36c1 2 3 4 5 5c6 6 12 9 20 12l189 63c3 1 7 1 10 0l189 -63c8 -3 14 -6 20 -12c2 -1 4 -3 5 -5c8 -10 13 -23 13 -36v-230c0 -23 -16 -46 -38 -53l-189 -63l-1 -1h-4h-4l-1 1l-189 63c-22 7 -38 30 -38 53zM56 141c0 -9 8 -20 16 -23l168 -56
v255l-182 63c-1 -3 -2 -6 -2 -9v-230zM94 401l162 -56l162 56l-162 54zM272 62l168 56c8 3 16 14 16 23v230c0 3 -1 6 -2 9l-182 -63v-255z" />
    <glyph glyph-name="uniE072" unicode="cycle_ccw" 
d="M16 304v128c0 9 7 16 16 16s16 -7 16 -16v-89l54 54c53 50 102 67 154 67c86 0 174 -65 199 -147c3 -8 -2 -17 -10 -20s-17 2 -20 10c-21 68 -98 125 -169 125c-39 0 -98 -25 -126 -53l-59 -59h89c9 0 16 -7 16 -16s-7 -16 -16 -16h-128h-2c-3 0 -7 3 -9 5s-3 4 -4 7
c0 1 -1 2 -1 4zM57 195c-3 8 2 17 10 20s17 -2 20 -10c21 -68 98 -125 169 -125c39 0 98 25 126 53l59 59h-89c-9 0 -16 7 -16 16s7 16 16 16h128h2c3 0 7 -3 9 -5s3 -4 4 -7c0 -1 1 -2 1 -4v-128c0 -9 -7 -16 -16 -16s-16 7 -16 16v89l-54 -54c-53 -50 -102 -67 -154 -67
c-86 0 -174 65 -199 147z" />
    <glyph glyph-name="uniE073" unicode="cycle_cw" 
d="M16 80v128c0 2 1 3 1 4c1 3 2 5 4 7s6 5 9 5h2h128c9 0 16 -7 16 -16s-7 -16 -16 -16h-89l59 -59c28 -28 87 -53 126 -53c71 0 148 57 169 125c3 8 12 13 20 10s13 -12 10 -20c-25 -82 -113 -147 -199 -147c-52 0 -101 17 -154 67l-54 54v-89c0 -9 -7 -16 -16 -16
s-16 7 -16 16zM57 317c25 82 113 147 199 147c52 0 101 -17 154 -67l54 -54v89c0 9 7 16 16 16s16 -7 16 -16v-128c0 -2 -1 -3 -1 -4c-1 -3 -2 -5 -4 -7s-6 -5 -9 -5h-2h-128c-9 0 -16 7 -16 16s7 16 16 16h89l-59 59c-28 28 -87 53 -126 53c-71 0 -148 -57 -169 -125
c-3 -8 -12 -13 -20 -10s-13 12 -10 20z" />
    <glyph glyph-name="uniE074" unicode="database_add" 
d="M48 112v96v96v96c0 50 110 64 208 64s208 -14 208 -64v-92c0 -9 -7 -16 -16 -16s-16 7 -16 16v53c-40 -19 -110 -25 -176 -25s-136 6 -176 25v-56c6 -8 55 -26 127 -31c9 -1 16 -8 15 -17s-9 -16 -18 -15c-46 3 -93 9 -124 23v-56c5 -7 41 -22 98 -29c9 -1 15 -8 14 -17
s-9 -16 -18 -15c-34 4 -69 10 -94 21v-56c7 -9 55 -26 124 -31c9 -1 16 -8 15 -17s-8 -16 -17 -15c-74 5 -154 18 -154 62zM81 400c13 -13 85 -32 175 -32c91 0 163 19 175 32c-13 13 -85 32 -175 32c-91 0 -163 -19 -175 -32zM208 160c0 80 64 144 144 144
s144 -64 144 -144s-64 -144 -144 -144s-144 64 -144 144zM240 160c0 -62 50 -112 112 -112s112 50 112 112s-50 112 -112 112s-112 -50 -112 -112zM272 160c0 9 7 16 16 16h48v48c0 9 7 16 16 16s16 -7 16 -16v-48h48c9 0 16 -7 16 -16s-7 -16 -16 -16h-48v-48
c0 -9 -7 -16 -16 -16s-16 7 -16 16v48h-48c-9 0 -16 7 -16 16z" />
    <glyph glyph-name="uniE075" unicode="database_delete" 
d="M48 112v96v96v96c0 50 110 64 208 64s208 -14 208 -64v-92c0 -9 -7 -16 -16 -16s-16 7 -16 16v53c-40 -19 -110 -25 -176 -25s-136 6 -176 25v-56c6 -8 55 -26 127 -31c9 -1 16 -8 15 -17s-9 -16 -18 -15c-46 3 -93 9 -124 23v-56c5 -7 41 -22 98 -29c9 -1 15 -8 14 -17
s-9 -16 -18 -15c-34 4 -69 10 -94 21v-56c7 -9 55 -26 124 -31c9 -1 16 -8 15 -17s-8 -16 -17 -15c-74 5 -154 18 -154 62zM81 400c13 -13 85 -32 175 -32c91 0 163 19 175 32c-13 13 -85 32 -175 32c-91 0 -163 -19 -175 -32zM208 160c0 80 64 144 144 144
s144 -64 144 -144s-64 -144 -144 -144s-144 64 -144 144zM240 160c0 -62 50 -112 112 -112s112 50 112 112s-50 112 -112 112s-112 -50 -112 -112zM293 101c-6 6 -6 16 0 22l36 37l-36 37c-6 6 -6 16 0 22s16 6 22 0l37 -36l37 36c6 6 16 6 22 0s6 -16 0 -22l-36 -37l36 -37
c6 -6 6 -16 0 -22s-16 -6 -22 0l-37 36l-37 -36c-6 -6 -16 -6 -22 0z" />
    <glyph glyph-name="uniE076" unicode="database_download" 
d="M48 112v96v96v96c0 50 110 64 208 64s208 -14 208 -64v-92c0 -9 -7 -16 -16 -16s-16 7 -16 16v53c-40 -19 -110 -25 -176 -25s-136 6 -176 25v-56c6 -8 55 -26 127 -31c9 -1 16 -8 15 -17s-9 -16 -18 -15c-46 3 -93 9 -124 23v-56c5 -7 41 -22 98 -29c9 -1 15 -8 14 -17
s-9 -16 -18 -15c-34 4 -69 10 -94 21v-56c7 -9 55 -26 124 -31c9 -1 16 -8 15 -17s-8 -16 -17 -15c-74 5 -154 18 -154 62zM81 400c13 -13 85 -32 175 -32c91 0 163 19 175 32c-13 13 -85 32 -175 32c-91 0 -163 -19 -175 -32zM208 160c0 80 64 144 144 144
s144 -64 144 -144s-64 -144 -144 -144s-144 64 -144 144zM240 160c0 -62 50 -112 112 -112s112 50 112 112s-50 112 -112 112s-112 -50 -112 -112zM277 149c-6 6 -6 16 0 22s16 6 22 0l37 -36v89c0 9 7 16 16 16s16 -7 16 -16v-89l37 36c6 6 16 6 22 0s6 -16 0 -22l-64 -64
c-1 -1 -1 -2 -2 -2c-3 -2 -6 -3 -9 -3s-6 1 -8 2l-3 3z" />
    <glyph glyph-name="uniE077" unicode="database_ok" 
d="M48 112v96v96v96c0 50 110 64 208 64s208 -14 208 -64v-92c0 -9 -7 -16 -16 -16s-16 7 -16 16v53c-40 -19 -110 -25 -176 -25s-136 6 -176 25v-56c6 -8 55 -26 127 -31c9 -1 16 -8 15 -17s-9 -16 -18 -15c-46 3 -93 9 -124 23v-56c5 -7 41 -22 98 -29c9 -1 15 -8 14 -17
s-9 -16 -18 -15c-34 4 -69 10 -94 21v-56c7 -9 55 -26 124 -31c9 -1 16 -8 15 -17s-8 -16 -17 -15c-74 5 -154 18 -154 62zM81 400c13 -13 85 -32 175 -32c91 0 163 19 175 32c-13 13 -85 32 -175 32c-91 0 -163 -19 -175 -32zM208 160c0 80 64 144 144 144
s144 -64 144 -144s-64 -144 -144 -144s-144 64 -144 144zM240 160c0 -62 50 -112 112 -112s112 50 112 112s-50 112 -112 112s-112 -50 -112 -112zM277 141c-6 6 -6 16 0 22s16 6 22 0l37 -36l69 68c6 6 16 6 22 0s6 -16 0 -22l-80 -80c-5 -5 -15 -7 -22 0z" />
    <glyph glyph-name="uniE078" unicode="database_pending" 
d="M48 112v96v96v96c0 50 110 64 208 64s208 -14 208 -64v-92c0 -9 -7 -16 -16 -16s-16 7 -16 16v53c-40 -19 -110 -25 -176 -25s-136 6 -176 25v-56c6 -8 55 -26 127 -31c9 -1 16 -8 15 -17s-9 -16 -18 -15c-46 3 -93 9 -124 23v-56c5 -7 41 -22 98 -29c9 -1 15 -8 14 -17
s-9 -16 -18 -15c-34 4 -69 10 -94 21v-56c7 -9 55 -26 124 -31c9 -1 16 -8 15 -17s-8 -16 -17 -15c-74 5 -154 18 -154 62zM81 400c13 -13 85 -32 175 -32c91 0 163 19 175 32c-13 13 -85 32 -175 32c-91 0 -163 -19 -175 -32zM208 160c0 80 64 144 144 144
s144 -64 144 -144s-64 -144 -144 -144s-144 64 -144 144zM240 160c0 -62 50 -112 112 -112s112 50 112 112s-50 112 -112 112s-112 -50 -112 -112zM264 160c0 13 11 24 24 24s24 -11 24 -24s-11 -24 -24 -24s-24 11 -24 24zM328 160c0 13 11 24 24 24s24 -11 24 -24
s-11 -24 -24 -24s-24 11 -24 24zM392 160c0 13 11 24 24 24s24 -11 24 -24s-11 -24 -24 -24s-24 11 -24 24z" />
    <glyph glyph-name="uniE079" unicode="database_remove" 
d="M48 112v96v96v96c0 50 110 64 208 64s208 -14 208 -64v-92c0 -9 -7 -16 -16 -16s-16 7 -16 16v53c-40 -19 -110 -25 -176 -25s-136 6 -176 25v-56c6 -8 55 -26 127 -31c9 -1 16 -8 15 -17s-9 -16 -18 -15c-46 3 -93 9 -124 23v-56c5 -7 41 -22 98 -29c9 -1 15 -8 14 -17
s-9 -16 -18 -15c-34 4 -69 10 -94 21v-56c7 -9 55 -26 124 -31c9 -1 16 -8 15 -17s-8 -16 -17 -15c-74 5 -154 18 -154 62zM81 400c13 -13 85 -32 175 -32c91 0 163 19 175 32c-13 13 -85 32 -175 32c-91 0 -163 -19 -175 -32zM208 160c0 80 64 144 144 144
s144 -64 144 -144s-64 -144 -144 -144s-144 64 -144 144zM240 160c0 -62 50 -112 112 -112s112 50 112 112s-50 112 -112 112s-112 -50 -112 -112zM272 160c0 9 7 16 16 16h128c9 0 16 -7 16 -16s-7 -16 -16 -16h-128c-9 0 -16 7 -16 16z" />
    <glyph glyph-name="uniE07A" unicode="database_scheduled" 
d="M48 112v96v96v96c0 50 110 64 208 64s208 -14 208 -64v-92c0 -9 -7 -16 -16 -16s-16 7 -16 16v53c-40 -19 -110 -25 -176 -25s-136 6 -176 25v-56c6 -8 55 -26 127 -31c9 -1 16 -8 15 -17s-9 -16 -18 -15c-46 3 -93 9 -124 23v-56c5 -7 41 -22 98 -29c9 -1 15 -8 14 -17
s-9 -16 -18 -15c-34 4 -69 10 -94 21v-56c7 -9 55 -26 124 -31c9 -1 16 -8 15 -17s-8 -16 -17 -15c-74 5 -154 18 -154 62zM81 400c13 -13 85 -32 175 -32c91 0 163 19 175 32c-13 13 -85 32 -175 32c-91 0 -163 -19 -175 -32zM208 160c0 80 64 144 144 144
s144 -64 144 -144s-64 -144 -144 -144s-144 64 -144 144zM240 160c0 -62 50 -112 112 -112s112 50 112 112s-50 112 -112 112s-112 -50 -112 -112zM336 160v64c0 9 7 16 16 16s16 -7 16 -16v-57l35 -36c6 -6 6 -16 0 -22s-16 -6 -22 0l-40 40c-2 2 -5 7 -5 11z" />
    <glyph glyph-name="uniE07B" unicode="database_upload" 
d="M48 112v96v96v96c0 50 110 64 208 64s208 -14 208 -64v-92c0 -9 -7 -16 -16 -16s-16 7 -16 16v53c-40 -19 -110 -25 -176 -25s-136 6 -176 25v-56c6 -8 55 -26 127 -31c9 -1 16 -8 15 -17s-9 -16 -18 -15c-46 3 -93 9 -124 23v-56c5 -7 41 -22 98 -29c9 -1 15 -8 14 -17
s-9 -16 -18 -15c-34 4 -69 10 -94 21v-56c7 -9 55 -26 124 -31c9 -1 16 -8 15 -17s-8 -16 -17 -15c-74 5 -154 18 -154 62zM81 400c13 -13 85 -32 175 -32c91 0 163 19 175 32c-13 13 -85 32 -175 32c-91 0 -163 -19 -175 -32zM208 160c0 80 64 144 144 144
s144 -64 144 -144s-64 -144 -144 -144s-144 64 -144 144zM240 160c0 -62 50 -112 112 -112s112 50 112 112s-50 112 -112 112s-112 -50 -112 -112zM277 149c-6 6 -6 16 0 22l64 64l3 3c2 1 5 2 8 2s6 -1 9 -3c1 0 1 -1 2 -2l64 -64c6 -6 6 -16 0 -22s-16 -6 -22 0l-37 36
v-89c0 -9 -7 -16 -16 -16s-16 7 -16 16v89l-37 -36c-6 -6 -16 -6 -22 0z" />
    <glyph glyph-name="uniE07C" unicode="database" 
d="M48 112v96v96v96c0 50 110 64 208 64s208 -14 208 -64v-96v-96v-96c0 -50 -110 -64 -208 -64s-208 14 -208 64zM80 113c9 -12 81 -33 176 -33s168 22 176 33v56c-40 -19 -110 -25 -176 -25s-136 6 -176 25v-56zM80 209c8 -11 81 -33 176 -33s167 21 176 33v56
c-40 -19 -110 -25 -176 -25s-136 6 -176 25v-56zM80 305c8 -11 81 -33 176 -33s167 21 176 33v56c-40 -19 -110 -25 -176 -25s-136 6 -176 25v-56zM81 400c13 -13 85 -32 175 -32c91 0 163 19 175 32c-13 13 -85 32 -175 32c-91 0 -163 -19 -175 -32z" />
    <glyph glyph-name="uniE07D" unicode="delete" 
d="M77 77c-6 6 -6 16 0 22l156 157l-156 157c-6 6 -6 16 0 22s16 6 22 0l157 -156l157 156c6 6 16 6 22 0s6 -16 0 -22l-156 -157l156 -157c6 -6 6 -16 0 -22s-16 -6 -22 0l-157 156l-157 -156c-6 -6 -16 -6 -22 0z" />
    <glyph glyph-name="uniE07E" unicode="deny" 
d="M24 256c0 128 104 232 232 232s232 -104 232 -232s-104 -232 -232 -232s-232 104 -232 232zM56 256c0 -110 90 -200 200 -200c49 0 95 18 130 48l-282 282c-30 -35 -48 -81 -48 -130zM126 408l282 -282c30 35 48 81 48 130c0 110 -90 200 -200 200
c-49 0 -95 -18 -130 -48z" />
    <glyph glyph-name="uniE07F" unicode="desktop" 
d="M48 168v24v216c0 31 25 56 56 56h304c31 0 56 -25 56 -56v-216v-24c0 -31 -25 -56 -56 -56h-136v-32h48c9 0 16 -7 16 -16s-7 -16 -16 -16h-64h-64c-9 0 -16 7 -16 16s7 16 16 16h48v32h-136c-31 0 -56 25 -56 56zM80 168c0 -13 11 -24 24 -24h152h152c13 0 24 11 24 24
v8h-352v-8zM80 208h352v200c0 13 -11 24 -24 24h-304c-13 0 -24 -11 -24 -24v-200z" />
    <glyph glyph-name="uniE080" unicode="devide" 
d="M112 256c0 9 7 16 16 16h256c9 0 16 -7 16 -16s-7 -16 -16 -16h-256c-9 0 -16 7 -16 16zM176 128c0 44 36 80 80 80s80 -36 80 -80s-36 -80 -80 -80s-80 36 -80 80zM176 384c0 44 36 80 80 80s80 -36 80 -80s-36 -80 -80 -80s-80 36 -80 80zM208 128c0 -27 21 -48 48 -48
s48 21 48 48s-21 48 -48 48s-48 -21 -48 -48zM208 384c0 -27 21 -48 48 -48s48 21 48 48s-21 48 -48 48s-48 -21 -48 -48z" />
    <glyph glyph-name="uniE081" unicode="diamond" 
d="M16 359v4s1 3 2 4l56 112c1 1 1 2 2 3s2 3 4 4c1 1 3 2 5 2h3h336h3c2 0 4 -1 5 -2c2 -1 3 -3 4 -4s1 -2 2 -3l56 -112c1 -3 2 -5 2 -8s-1 -6 -3 -8l-224 -320v0c-1 -1 -1 -2 -2 -3h-1c-1 0 -1 -2 -2 -2s-1 -1 -2 -1c-3 -1 -7 -1 -10 0s-7 3 -9 6l-224 320
c-1 2 -3 5 -3 8zM58 376h65l-34 62zM63 344l145 -207l-68 207h-77zM115 456l39 -69l65 69h-104zM174 344l82 -252l82 252h-164zM187 376h138l-69 73zM293 456l65 -69l39 69h-104zM304 137l145 207h-77zM389 376h65l-31 62z" />
    <glyph glyph-name="uniE082" unicode="direction_ccw_e" 
d="M88 280v128c0 9 7 16 16 16s16 -7 16 -16v-128c0 -35 29 -64 64 -64h185l-68 69c-6 6 -6 16 0 22s16 6 22 0l96 -96c5 -5 7 -15 0 -22l-96 -96c-6 -6 -16 -6 -22 0s-6 16 0 22l68 69h-185c-53 0 -96 43 -96 96z" />
    <glyph glyph-name="uniE083" unicode="direction_ccw_n" 
d="M88 104c0 9 7 16 16 16h128c35 0 64 29 64 64v185l-69 -68c-6 -6 -16 -6 -22 0s-6 16 0 22l96 96c5 5 15 7 22 0l96 -96c6 -6 6 -16 0 -22s-16 -6 -22 0l-69 68v-185c0 -53 -43 -96 -96 -96h-128c-9 0 -16 7 -16 16z" />
    <glyph glyph-name="uniE084" unicode="direction_ccw_s" 
d="M93 189c-6 6 -6 16 0 22s16 6 22 0l69 -68v185c0 53 43 96 96 96h128c9 0 16 -7 16 -16s-7 -16 -16 -16h-128c-35 0 -64 -29 -64 -64v-185l69 68c6 6 16 6 22 0s6 -16 0 -22l-96 -96c-5 -5 -15 -7 -22 0z" />
    <glyph glyph-name="uniE085" unicode="direction_ccw_w" 
d="M93 301c-5 5 -7 15 0 22l96 96c6 6 16 6 22 0s6 -16 0 -22l-68 -69h185c53 0 96 -43 96 -96v-128c0 -9 -7 -16 -16 -16s-16 7 -16 16v128c0 35 -29 64 -64 64h-185l68 -69c6 -6 6 -16 0 -22s-16 -6 -22 0z" />
    <glyph glyph-name="uniE086" unicode="direction_cw_e" 
d="M88 104v128c0 53 43 96 96 96h185l-68 69c-6 6 -6 16 0 22s16 6 22 0l96 -96c7 -7 5 -17 0 -22l-96 -96c-6 -6 -16 -6 -22 0s-6 16 0 22l68 69h-185c-35 0 -64 -29 -64 -64v-128c0 -9 -7 -16 -16 -16s-16 7 -16 16z" />
    <glyph glyph-name="uniE087" unicode="direction_cw_n" 
d="M93 301c-6 6 -6 16 0 22l96 96c7 7 17 5 22 0l96 -96c6 -6 6 -16 0 -22s-16 -6 -22 0l-69 68v-185c0 -35 29 -64 64 -64h128c9 0 16 -7 16 -16s-7 -16 -16 -16h-128c-53 0 -96 43 -96 96v185l-69 -68c-6 -6 -16 -6 -22 0z" />
    <glyph glyph-name="uniE088" unicode="direction_cw_s" 
d="M88 408c0 9 7 16 16 16h128c53 0 96 -43 96 -96v-185l69 68c6 6 16 6 22 0s6 -16 0 -22l-96 -96c-7 -7 -17 -5 -22 0l-96 96c-6 6 -6 16 0 22s16 6 22 0l69 -68v185c0 35 -29 64 -64 64h-128c-9 0 -16 7 -16 16z" />
    <glyph glyph-name="uniE089" unicode="direction_cw_w" 
d="M93 189c-7 7 -5 17 0 22l96 96c6 6 16 6 22 0s6 -16 0 -22l-68 -69h185c35 0 64 29 64 64v128c0 9 7 16 16 16s16 -7 16 -16v-128c0 -53 -43 -96 -96 -96h-185l68 -69c6 -6 6 -16 0 -22s-16 -6 -22 0z" />
    <glyph glyph-name="uniE08A" unicode="disk_download" 
d="M32 88v88v3v0c0 1 1 3 1 4l69 149c0 1 1 2 1 2c10 16 28 26 47 26h42c9 0 16 -7 16 -16s-7 -16 -16 -16h-42c-5 0 -16 -5 -20 -11l-57 -125h366l-57 125c-4 5 -14 11 -20 11h-42c-9 0 -16 7 -16 16s7 16 16 16h42c19 0 37 -10 47 -26c0 -1 1 -2 1 -2l69 -149
c0 -1 1 -3 1 -4v-3v-88c0 -31 -25 -56 -56 -56h-336c-31 0 -56 25 -56 56zM64 88c0 -13 11 -24 24 -24h336c13 0 24 11 24 24v72h-384v-72zM96 112c0 9 7 16 16 16h104c9 0 16 -7 16 -16s-7 -16 -16 -16h-104c-9 0 -16 7 -16 16zM189 285c-6 6 -6 16 0 22s16 6 22 0l29 -28
v185c0 9 7 16 16 16s16 -7 16 -16v-185l29 28c6 6 16 6 22 0s6 -16 0 -22l-56 -56c-5 -5 -15 -7 -22 0zM264 112c0 9 7 16 16 16h8c9 0 16 -7 16 -16s-7 -16 -16 -16h-8c-9 0 -16 7 -16 16z" />
    <glyph glyph-name="uniE08B" unicode="disk_upload" 
d="M32 88v88v3v0c0 1 1 3 1 4l69 149c0 1 1 2 1 2c10 16 28 26 47 26h42c9 0 16 -7 16 -16s-7 -16 -16 -16h-42c-5 0 -16 -5 -20 -11l-57 -125h366l-57 125c-4 5 -14 11 -20 11h-42c-9 0 -16 7 -16 16s7 16 16 16h42c19 0 37 -10 47 -26c0 -1 1 -2 1 -2l69 -149
c0 -1 1 -3 1 -4v-3v-88c0 -31 -25 -56 -56 -56h-336c-31 0 -56 25 -56 56zM64 88c0 -13 11 -24 24 -24h336c13 0 24 11 24 24v72h-384v-72zM96 112c0 9 7 16 16 16h104c9 0 16 -7 16 -16s-7 -16 -16 -16h-104c-9 0 -16 7 -16 16zM189 397c-6 6 -6 16 0 22l56 56
c7 7 17 5 22 0l56 -56c6 -6 6 -16 0 -22s-16 -6 -22 0l-29 28v-185c0 -9 -7 -16 -16 -16s-16 7 -16 16v185l-29 -28c-6 -6 -16 -6 -22 0zM264 112c0 9 7 16 16 16h8c9 0 16 -7 16 -16s-7 -16 -16 -16h-8c-9 0 -16 7 -16 16z" />
    <glyph glyph-name="uniE08C" unicode="disk" 
d="M32 148v96v3v0c0 1 1 3 1 4l69 149s1 1 1 2c10 16 28 26 47 26h212c19 0 37 -10 47 -26c0 0 1 -1 1 -2l69 -149c0 -1 1 -3 1 -4v-3v-96c0 -31 -25 -56 -56 -56h-336c-31 0 -56 25 -56 56zM64 148c0 -13 11 -24 24 -24h336c13 0 24 11 24 24v80h-384v-80zM73 260h366
l-57 125c-4 6 -15 11 -20 11h-212c-6 0 -16 -6 -20 -11zM96 180c0 9 7 16 16 16h104c9 0 16 -7 16 -16s-7 -16 -16 -16h-104c-9 0 -16 7 -16 16zM264 180c0 9 7 16 16 16h8c9 0 16 -7 16 -16s-7 -16 -16 -16h-8c-9 0 -16 7 -16 16z" />
    <glyph glyph-name="uniE08D" unicode="domain" 
d="M16 176c0 9 7 16 16 16h448c9 0 16 -7 16 -16s-7 -16 -16 -16h-22c-36 -72 -122 -128 -202 -128s-167 56 -202 128h-22c-9 0 -16 7 -16 16zM16 336c0 9 7 16 16 16h22c36 72 122 128 202 128s167 -56 202 -128h22c9 0 16 -7 16 -16s-7 -16 -16 -16h-448
c-9 0 -16 7 -16 16zM57 282c-3 8 1 18 9 21s18 -1 21 -9l9 -24l9 24c3 9 14 12 22 8c4 -2 7 -4 8 -8l9 -24l9 24c3 8 13 12 21 9s12 -13 9 -21l-24 -64c-1 -4 -4 -6 -8 -8c-8 -4 -19 -1 -22 8l-9 24l-9 -24c-1 -4 -4 -6 -8 -8c-8 -4 -19 -1 -22 8zM90 160
c22 -35 60 -65 101 -82c-13 22 -23 51 -29 82h-72zM90 352h72c6 31 16 60 29 82c-41 -17 -79 -47 -101 -82zM193 282c-3 8 1 18 9 21s18 -1 21 -9l9 -24l9 24c3 9 14 12 22 8c4 -2 7 -4 8 -8l9 -24l9 24c3 8 13 12 21 9s12 -13 9 -21l-24 -64c-1 -4 -4 -6 -8 -8
c-8 -4 -19 -1 -22 8l-9 24l-9 -24c-1 -4 -4 -6 -8 -8c-8 -4 -19 -1 -22 8zM194 160c15 -64 43 -96 62 -96s47 32 62 96h-124zM194 352h124c-15 64 -43 96 -62 96s-47 -32 -62 -96zM321 434c13 -22 23 -51 29 -82h72c-22 35 -60 65 -101 82zM321 78c41 17 79 47 101 82h-72
c-6 -31 -16 -60 -29 -82zM329 282c-3 8 1 18 9 21s18 -1 21 -9l9 -24l9 24c3 9 14 12 22 8c4 -2 7 -4 8 -8l9 -24l9 24c3 8 13 12 21 9s12 -13 9 -21l-24 -64c-1 -4 -4 -6 -8 -8c-8 -4 -19 -1 -22 8l-9 24l-9 -24c-1 -4 -4 -6 -8 -8c-8 -4 -19 -1 -22 8z" />
    <glyph glyph-name="uniE08E" unicode="draw" 
d="M48 64c0 9 7 16 16 16h384c9 0 16 -7 16 -16s-7 -16 -16 -16h-384c-9 0 -16 7 -16 16zM48 144v88c0 4 3 9 5 11l216 216c7 7 17 5 22 0l88 -88c7 -7 5 -17 0 -22l-216 -216c-3 -3 -7 -5 -11 -5h-88c-10 0 -16 9 -16 16zM80 160h65l200 200l-65 65l-200 -200v-65z" />
    <glyph glyph-name="uniE08F" unicode="edit" 
d="M48 104v304c0 31 25 56 56 56h168c9 0 16 -7 16 -16s-7 -16 -16 -16h-168c-13 0 -24 -11 -24 -24v-304c0 -13 11 -24 24 -24h304c13 0 24 11 24 24v168c0 9 7 16 16 16s16 -7 16 -16v-168c0 -31 -25 -56 -56 -56h-304c-31 0 -56 25 -56 56zM152 168v88c0 4 3 9 5 11
l216 216c7 7 17 5 22 0l88 -88c7 -7 5 -17 0 -22l-216 -216c-3 -3 -7 -5 -11 -5h-88c-10 0 -16 9 -16 16zM184 184h65l200 200l-65 65l-200 -200v-65z" />
    <glyph glyph-name="uniE090" unicode="ellipsis" 
d="M56 256c0 22 18 40 40 40s40 -18 40 -40s-18 -40 -40 -40s-40 18 -40 40zM216 256c0 22 18 40 40 40s40 -18 40 -40s-18 -40 -40 -40s-40 18 -40 40zM376 256c0 22 18 40 40 40s40 -18 40 -40s-18 -40 -40 -40s-40 18 -40 40z" />
    <glyph glyph-name="uniE091" unicode="eu_flag_dark" 
d="M16 38v436c0 12 10 22 22 22h436c12 0 22 -10 22 -22v-436c0 -12 -10 -22 -22 -22h-436c-12 0 -22 10 -22 22zM60 268l17 -17l-4 -24l22 11l22 -11l-4 24l18 17l-25 4l-11 22l-11 -22zM81 347l18 -17l-5 -24l22 11l22 -11l-4 24l18 17l-25 4l-11 22l-11 -22zM81 189
l18 -17l-5 -25l22 12l22 -12l-4 25l18 17l-25 4l-11 22l-11 -22zM139 131l18 -17l-5 -25l22 12l22 -12l-4 25l18 17l-25 4l-11 22l-11 -22zM139 405l18 -17l-5 -24l22 11l22 -11l-4 24l18 17l-25 4l-11 22l-11 -22zM218 110l18 -17l-4 -25l21 12l22 -12l-4 25l18 17l-25 3
l-11 23l-11 -23zM218 427l18 -18l-4 -24l21 11l22 -11l-4 24l18 18l-25 3l-11 22l-11 -22zM297 131l18 -17l-4 -25l22 12l22 -12l-5 25l18 17l-24 4l-11 22l-11 -22zM297 405l18 -17l-4 -24l22 11l22 -11l-5 24l18 17l-24 4l-11 22l-11 -22zM355 189l18 -17l-4 -25l22 12
l22 -12l-5 25l18 17l-24 4l-11 22l-11 -22zM355 347l18 -17l-4 -24l22 11l22 -11l-5 24l18 17l-24 4l-11 22l-11 -22zM376 268l18 -17l-4 -24l22 11l22 -12l-4 25l17 17l-24 4l-11 22l-11 -22z" />
    <glyph glyph-name="uniE092" unicode="eu_flag_light" 
d="M21 266l26 4l11 23l12 -23l25 -4l-18 -18l4 -25l-23 12l-23 -12l5 25zM48 167l25 4l12 23l11 -23l26 -4l-19 -18l5 -25l-23 12l-23 -12l4 25zM48 365l25 4l12 23l11 -23l26 -4l-19 -18l5 -25l-23 12l-23 -12l4 25zM120 95l26 3l11 24l12 -24l25 -3l-18 -18l4 -26l-23 12
l-23 -12l5 26zM120 437l26 4l11 23l12 -23l25 -4l-18 -18l4 -25l-23 12l-23 -12l5 25zM219 68l26 4l11 23l11 -23l26 -4l-19 -18l5 -25l-23 12l-23 -12l5 25zM219 464l26 4l11 23l11 -23l26 -4l-19 -18l5 -26l-23 12l-23 -12l5 26zM318 95l25 3l12 24l11 -23l26 -4l-19 -18
l5 -26l-23 12l-23 -12l4 26zM318 437l25 4l12 23l11 -23l26 -4l-19 -18l5 -25l-23 12l-23 -12l4 25zM390 167l26 4l11 23l12 -23l25 -4l-18 -18l4 -25l-23 12l-23 -12l5 25zM390 365l26 4l11 23l12 -23l25 -4l-18 -18l4 -25l-23 12l-23 -12l5 25zM417 266l25 4l12 23l11 -23
l26 -4l-19 -18l5 -25l-23 12l-23 -12l4 25z" />
    <glyph glyph-name="uniE093" unicode="eye_off" 
d="M24 256c0 3 1 7 3 10c28 38 65 68 107 89l-81 82c-6 6 -6 16 0 22s16 6 22 0l95 -94c3 -2 5 -4 7 -8l39 -39v0l40 -39v-1l11 -11v0l12 -11v0l39 -40l141 -141c6 -6 6 -16 0 -22s-16 -6 -22 0l-91 90c-27 -9 -64 -15 -90 -15c-93 0 -175 46 -229 118c-2 3 -3 7 -3 10z
M60 256c48 -59 118 -96 196 -96c17 0 43 4 64 9l-14 15c-15 -10 -33 -16 -50 -16c-49 0 -88 39 -88 88c0 17 6 35 16 50l-26 25c-38 -17 -71 -42 -98 -75zM200 256c0 -31 25 -56 56 -56c7 0 17 3 26 7l-18 18c-2 -1 -5 -1 -8 -1c-7 0 -14 2 -19 6c-1 1 -3 2 -4 3s-2 3 -3 4
c-4 5 -6 12 -6 19c0 3 0 6 1 8l-18 18c-4 -9 -7 -19 -7 -26zM203 363c-1 9 4 17 13 18c11 2 29 3 40 3c93 0 175 -46 229 -118c2 -3 3 -7 3 -10s-1 -7 -3 -10c-19 -25 -53 -56 -79 -73c-7 -5 -17 -2 -22 5s-2 17 5 22c19 12 46 36 63 56c-48 59 -118 96 -196 96
c-9 0 -26 -2 -35 -3s-17 5 -18 14zM306 281c-4 8 -1 18 7 22s18 0 22 -8c6 -11 9 -26 9 -39h-32c0 6 -3 20 -6 25z" />
    <glyph glyph-name="uniE094" unicode="eye" 
d="M24 256c0 3 1 7 3 10c54 72 136 118 229 118s175 -46 229 -118c2 -3 3 -7 3 -10s-1 -7 -3 -10c-54 -72 -136 -118 -229 -118s-175 46 -229 118c-2 3 -3 7 -3 10zM60 256c48 -59 118 -96 196 -96s148 37 196 96c-48 59 -118 96 -196 96s-148 -37 -196 -96zM168 256
c0 49 39 88 88 88c9 0 16 -7 16 -16s-7 -16 -16 -16c-31 0 -56 -25 -56 -56s25 -56 56 -56s56 25 56 56c0 6 -3 20 -6 25c-4 8 -1 18 7 22s18 0 22 -8c6 -11 9 -26 9 -39c0 -49 -39 -88 -88 -88s-88 39 -88 88zM224 256c0 18 14 32 32 32s32 -14 32 -32s-14 -32 -32 -32
s-32 14 -32 32z" />
    <glyph glyph-name="uniE095" unicode="eyeglass" 
d="M32 176c0 10 2 20 5 29l44 156c11 40 50 71 92 71h19c9 0 16 -7 16 -16s-7 -16 -16 -16h-19c-26 0 -54 -22 -61 -48l-26 -90c13 6 27 10 42 10c36 0 68 -20 84 -50c11 11 27 18 44 18s33 -7 44 -18c16 30 48 50 84 50c16 0 31 -4 44 -11l-26 91c-7 26 -36 48 -62 48h-18
c-9 0 -16 7 -16 16s7 16 16 16h18c42 0 82 -31 93 -71l45 -157c1 -3 1 -5 0 -7c1 -7 2 -14 2 -21c0 -53 -43 -96 -96 -96s-96 43 -96 96c0 18 -14 32 -32 32s-32 -14 -32 -32c0 -53 -43 -96 -96 -96s-96 43 -96 96zM64 176c0 -35 29 -64 64 -64s64 29 64 64s-29 64 -64 64
c-28 0 -53 -18 -61 -44v0v-1c-2 -6 -3 -13 -3 -19zM320 176c0 -35 29 -64 64 -64s64 29 64 64s-29 64 -64 64s-64 -29 -64 -64z" />
    <glyph glyph-name="uniE096" unicode="facebook" 
d="M128 236v83h72v61c0 36 10 63 30 82s45 29 77 29c15 0 29 0 41 -1s19 -2 23 -3v-74h-43c-18 0 -29 -4 -34 -11s-8 -18 -8 -30v-53h83l-11 -84h-72v-214h-86v215h-72z" />
    <glyph glyph-name="uniE097" unicode="file_add" 
d="M72 72v368c0 31 25 56 56 56h168c3 0 6 -1 9 -3l2 -2l128 -128l2 -2c2 -2 3 -6 3 -9v-31c0 -9 -7 -16 -16 -16s-16 7 -16 16v15h-112c-7 0 -16 6 -16 16v112h-152c-13 0 -24 -11 -24 -24v-368c0 -13 11 -24 24 -24h103c9 0 16 -7 16 -16s-7 -16 -16 -16h-103
c-31 0 -56 25 -56 56zM208 160c0 80 64 144 144 144s144 -64 144 -144s-64 -144 -144 -144s-144 64 -144 144zM240 160c0 -62 50 -112 112 -112s112 50 112 112s-50 112 -112 112s-112 -50 -112 -112zM272 160c0 9 7 16 16 16h48v48c0 9 7 16 16 16s16 -7 16 -16v-48h48
c9 0 16 -7 16 -16s-7 -16 -16 -16h-48v-48c0 -9 -7 -16 -16 -16s-16 7 -16 16v48h-48c-9 0 -16 7 -16 16zM312 368h73l-73 73v-73z" />
    <glyph glyph-name="uniE098" unicode="file_archive" 
d="M72 72v368c0 31 25 56 56 56h168c3 0 6 -1 9 -3l2 -2l128 -128l2 -2c2 -2 3 -6 3 -9v-280c0 -31 -25 -56 -56 -56h-256c-31 0 -56 25 -56 56zM104 72c0 -13 11 -24 24 -24h256c13 0 24 11 24 24v264h-112c-7 0 -16 6 -16 16v26c-2 -1 -5 -2 -8 -2h-24c-9 0 -16 7 -16 16
s7 16 16 16h24c3 0 6 -1 8 -2v58h-152c-13 0 -24 -11 -24 -24v-368zM192 152v3l16 80c1 6 8 13 16 13h48c6 0 14 -5 16 -13l16 -80v-3c0 0 0 -56 -56 -56c-55 0 -56 55 -56 56zM200 272c0 9 7 16 16 16h24c9 0 16 -7 16 -16s-7 -16 -16 -16h-24c-9 0 -16 7 -16 16zM200 352
c0 9 7 16 16 16h24c9 0 16 -7 16 -16s-7 -16 -16 -16h-24c-9 0 -16 7 -16 16zM200 432c0 9 7 16 16 16h24c9 0 16 -7 16 -16s-7 -16 -16 -16h-24c-9 0 -16 7 -16 16zM224 151c1 -8 3 -23 24 -23s23 16 24 23l-13 65h-22zM232 312c0 9 7 16 16 16h24c9 0 16 -7 16 -16
s-7 -16 -16 -16h-24c-9 0 -16 7 -16 16zM312 368h73l-73 73v-73z" />
    <glyph glyph-name="uniE099" unicode="file_code" 
d="M72 72v368c0 31 25 56 56 56h168c3 0 6 -1 9 -3l2 -2l128 -128l2 -2c2 -2 3 -6 3 -9v-280c0 -31 -25 -56 -56 -56h-256c-31 0 -56 25 -56 56zM104 72c0 -13 11 -24 24 -24h256c13 0 24 11 24 24v264h-112c-7 0 -16 6 -16 16v112h-152c-13 0 -24 -11 -24 -24v-368z
M136 192c0 9 7 16 16 16c13 0 24 11 24 24v16c0 31 25 56 56 56c9 0 16 -7 16 -16s-7 -16 -16 -16c-13 0 -24 -11 -24 -24v-16c0 -16 -7 -30 -17 -40c10 -10 17 -24 17 -40v-16c0 -13 11 -24 24 -24c9 0 16 -7 16 -16s-7 -16 -16 -16c-31 0 -56 25 -56 56v16
c0 13 -11 24 -24 24c-9 0 -16 7 -16 16zM264 96c0 9 7 16 16 16c13 0 24 11 24 24v16c0 16 7 30 17 40c-10 10 -17 24 -17 40v16c0 13 -11 24 -24 24c-9 0 -16 7 -16 16s7 16 16 16c31 0 56 -25 56 -56v-16c0 -13 11 -24 24 -24c9 0 16 -7 16 -16s-7 -16 -16 -16
c-13 0 -24 -11 -24 -24v-16c0 -31 -25 -56 -56 -56c-9 0 -16 7 -16 16zM312 368h73l-73 73v-73z" />
    <glyph glyph-name="uniE09A" unicode="file_database" 
d="M72 72v368c0 31 25 56 56 56h168c3 0 6 -1 9 -3l2 -2l128 -128l2 -2c2 -2 3 -6 3 -9v-280c0 -31 -25 -56 -56 -56h-256c-31 0 -56 25 -56 56zM104 72c0 -13 11 -24 24 -24h256c13 0 24 11 24 24v264h-112c-7 0 -16 6 -16 16v112h-152c-13 0 -24 -11 -24 -24v-368z
M136 136v56v56c0 42 66 56 120 56s120 -14 120 -56v-56v-56c0 -42 -66 -56 -120 -56s-120 14 -120 56zM168 136c1 -4 32 -24 88 -24s87 20 88 24v15c-24 -11 -58 -15 -88 -15s-64 4 -88 15v-15zM168 193v-2c1 -3 32 -23 88 -23c55 0 87 20 88 23v2v14
c-24 -11 -58 -15 -88 -15s-64 4 -88 15v-14zM168 248c1 -5 33 -24 88 -24c56 0 87 20 88 24c-1 5 -33 24 -88 24c-56 0 -87 -20 -88 -24zM312 368h73l-73 73v-73z" />
    <glyph glyph-name="uniE09B" unicode="file_delete" 
d="M72 72v368c0 31 25 56 56 56h168c3 0 6 -1 9 -3l2 -2l128 -128l2 -2c2 -2 3 -6 3 -9v-31c0 -9 -7 -16 -16 -16s-16 7 -16 16v15h-112c-7 0 -16 6 -16 16v112h-152c-13 0 -24 -11 -24 -24v-368c0 -13 11 -24 24 -24h103c9 0 16 -7 16 -16s-7 -16 -16 -16h-103
c-31 0 -56 25 -56 56zM208 160c0 80 64 144 144 144s144 -64 144 -144s-64 -144 -144 -144s-144 64 -144 144zM240 160c0 -62 50 -112 112 -112s112 50 112 112s-50 112 -112 112s-112 -50 -112 -112zM293 101c-6 6 -6 16 0 22l36 37l-36 37c-6 6 -6 16 0 22s16 6 22 0
l37 -36l37 36c6 6 16 6 22 0s6 -16 0 -22l-36 -37l36 -37c6 -6 6 -16 0 -22s-16 -6 -22 0l-37 36l-37 -36c-6 -6 -16 -6 -22 0zM312 368h73l-73 73v-73z" />
    <glyph glyph-name="uniE09C" unicode="file_download" 
d="M72 72v368c0 31 25 56 56 56h168c3 0 6 -1 9 -3l2 -2l128 -128l2 -2c2 -2 3 -6 3 -9v-31c0 -9 -7 -16 -16 -16s-16 7 -16 16v15h-112c-7 0 -16 6 -16 16v112h-152c-13 0 -24 -11 -24 -24v-368c0 -13 11 -24 24 -24h103c9 0 16 -7 16 -16s-7 -16 -16 -16h-103
c-31 0 -56 25 -56 56zM208 160c0 80 64 144 144 144s144 -64 144 -144s-64 -144 -144 -144s-144 64 -144 144zM240 160c0 -62 50 -112 112 -112s112 50 112 112s-50 112 -112 112s-112 -50 -112 -112zM277 149c-6 6 -6 16 0 22s16 6 22 0l37 -36v89c0 9 7 16 16 16
s16 -7 16 -16v-89l37 36c6 6 16 6 22 0s6 -16 0 -22l-64 -64c-1 -1 -1 -2 -2 -2c-3 -2 -6 -3 -9 -3s-6 1 -8 2l-3 3zM312 368h73l-73 73v-73z" />
    <glyph glyph-name="uniE09D" unicode="file_image" 
d="M72 72v368c0 31 25 56 56 56h168c3 0 6 -1 9 -3l2 -2l128 -128l2 -2c2 -2 3 -6 3 -9v-280c0 -31 -25 -56 -56 -56h-256c-31 0 -56 25 -56 56zM104 72c0 -13 11 -24 24 -24h256c13 0 24 11 24 24v264h-112c-7 0 -16 6 -16 16v112h-152c-13 0 -24 -11 -24 -24v-368zM136 96
v192c0 7 6 16 16 16h208c7 0 16 -6 16 -16v-192c0 -7 -6 -16 -16 -16h-208c-7 0 -16 6 -16 16zM168 112h61l71 82c6 7 16 7 22 2l22 -18v94h-176v-160zM184 212c0 24 20 44 44 44s44 -20 44 -44s-20 -44 -44 -44s-44 20 -44 44zM216 212c0 -7 5 -12 12 -12s12 5 12 12
s-5 12 -12 12s-12 -5 -12 -12zM271 112h73v24l-30 25zM312 368h73l-73 73v-73z" />
    <glyph glyph-name="uniE09E" unicode="file_markup" 
d="M72 72v368c0 31 25 56 56 56h168c3 0 6 -1 9 -3l2 -2l128 -128l2 -2c2 -2 3 -6 3 -9v-280c0 -31 -25 -56 -56 -56h-256c-31 0 -56 25 -56 56zM104 72c0 -13 11 -24 24 -24h256c13 0 24 11 24 24v264h-112c-7 0 -16 6 -16 16v112h-152c-13 0 -24 -11 -24 -24v-368z
M141 168c-5 5 -7 15 0 22l56 57c6 6 17 6 23 0s6 -17 0 -23l-45 -45l36 -36c6 -6 6 -17 0 -23s-17 -6 -23 0zM215 102l52 164c3 8 12 14 20 11s13 -12 10 -20l-52 -165c-3 -8 -12 -13 -20 -10s-13 12 -10 20zM292 134l45 45l-36 37c-6 6 -6 16 0 22s17 6 23 0l47 -48
c5 -5 7 -15 0 -22l-56 -56c-6 -6 -17 -6 -23 0s-6 16 0 22zM312 368h73l-73 73v-73z" />
    <glyph glyph-name="uniE09F" unicode="file_ok" 
d="M72 72v368c0 31 25 56 56 56h168c3 0 6 -1 9 -3l2 -2l128 -128l2 -2c2 -2 3 -6 3 -9v-31c0 -9 -7 -16 -16 -16s-16 7 -16 16v15h-112c-7 0 -16 6 -16 16v112h-152c-13 0 -24 -11 -24 -24v-368c0 -13 11 -24 24 -24h103c9 0 16 -7 16 -16s-7 -16 -16 -16h-103
c-31 0 -56 25 -56 56zM208 160c0 80 64 144 144 144s144 -64 144 -144s-64 -144 -144 -144s-144 64 -144 144zM240 160c0 -62 50 -112 112 -112s112 50 112 112s-50 112 -112 112s-112 -50 -112 -112zM277 141c-6 6 -6 16 0 22s16 6 22 0l37 -36l69 68c6 6 16 6 22 0
s6 -16 0 -22l-80 -80c-5 -5 -15 -7 -22 0zM312 368h73l-73 73v-73z" />
    <glyph glyph-name="uniE0A0" unicode="file_patch" 
d="M72 72v368c0 31 25 56 56 56h168c3 0 6 -1 9 -3l2 -2l128 -128l2 -2c2 -2 3 -6 3 -9v-280c0 -31 -25 -56 -56 -56h-256c-31 0 -56 25 -56 56zM104 72c0 -13 11 -24 24 -24h256c13 0 24 11 24 24v264h-112c-7 0 -16 6 -16 16v112h-152c-13 0 -24 -11 -24 -24v-368zM168 96
c0 9 7 16 16 16h144c9 0 16 -7 16 -16s-7 -16 -16 -16h-144c-9 0 -16 7 -16 16zM168 232c0 9 7 16 16 16h56v56c0 9 7 16 16 16s16 -7 16 -16v-56h56c9 0 16 -7 16 -16s-7 -16 -16 -16h-56v-56c0 -9 -7 -16 -16 -16s-16 7 -16 16v56h-56c-9 0 -16 7 -16 16zM312 368h73
l-73 73v-73z" />
    <glyph glyph-name="uniE0A1" unicode="file_pdf" 
d="M72 72v368c0 31 25 56 56 56h168c3 0 6 -1 9 -3l2 -2l128 -128l2 -2c2 -2 3 -6 3 -9v-280c0 -31 -25 -56 -56 -56h-256c-31 0 -56 25 -56 56zM104 72c0 -13 11 -24 24 -24h256c13 0 24 11 24 24v264h-112c-7 0 -16 6 -16 16v112h-152c-13 0 -24 -11 -24 -24v-368z
M139 113c-8 33 36 51 67 59c2 1 5 1 8 2c4 11 8 22 10 33v2c-3 4 -6 7 -9 11c-9 12 -15 24 -19 35s-6 24 1 36c4 7 11 12 19 15c5 2 10 2 15 1c33 -5 31 -48 29 -74c0 -4 -1 -9 -2 -14l2 -2c11 -11 23 -22 36 -32c6 -4 11 -9 17 -13c10 -3 20 -6 29 -11c10 -5 20 -12 29 -20
c1 -1 1 -2 2 -3c3 -4 3 -9 2 -14c0 -1 0 -2 -1 -3s-1 -2 -2 -3c-3 -4 -8 -5 -13 -5c-1 0 -3 1 -4 1c-9 3 -19 7 -28 12s-19 11 -28 17c-7 2 -14 2 -20 3c-14 1 -29 1 -42 -1c-1 -2 -2 -5 -3 -7c-13 -27 -37 -59 -71 -47c-10 4 -21 9 -24 22zM172 121h1c4 -1 11 -1 21 13
c-10 -4 -18 -9 -22 -13zM224 274c0 0 0 -6 5 -16c0 8 -2 14 -3 17c-1 0 -2 -1 -2 -1zM250 179h4c-1 1 -3 2 -4 3v-3zM312 368h73l-73 73v-73z" />
    <glyph glyph-name="uniE0A2" unicode="file_pending" 
d="M72 72v368c0 31 25 56 56 56h168c3 0 6 -1 9 -3l2 -2l128 -128l2 -2c2 -2 3 -6 3 -9v-31c0 -9 -7 -16 -16 -16s-16 7 -16 16v15h-112c-7 0 -16 6 -16 16v112h-152c-13 0 -24 -11 -24 -24v-368c0 -13 11 -24 24 -24h103c9 0 16 -7 16 -16s-7 -16 -16 -16h-103
c-31 0 -56 25 -56 56zM208 160c0 80 64 144 144 144s144 -64 144 -144s-64 -144 -144 -144s-144 64 -144 144zM240 160c0 -62 50 -112 112 -112s112 50 112 112s-50 112 -112 112s-112 -50 -112 -112zM264 160c0 13 11 24 24 24s24 -11 24 -24s-11 -24 -24 -24
s-24 11 -24 24zM312 368h73l-73 73v-73zM328 160c0 13 11 24 24 24s24 -11 24 -24s-11 -24 -24 -24s-24 11 -24 24zM392 160c0 13 11 24 24 24s24 -11 24 -24s-11 -24 -24 -24s-24 11 -24 24z" />
    <glyph glyph-name="uniE0A3" unicode="file_remove" 
d="M72 72v368c0 31 25 56 56 56h168c3 0 6 -1 9 -3l2 -2l128 -128l2 -2c2 -2 3 -6 3 -9v-31c0 -9 -7 -16 -16 -16s-16 7 -16 16v15h-112c-7 0 -16 6 -16 16v112h-152c-13 0 -24 -11 -24 -24v-368c0 -13 11 -24 24 -24h103c9 0 16 -7 16 -16s-7 -16 -16 -16h-103
c-31 0 -56 25 -56 56zM208 160c0 80 64 144 144 144s144 -64 144 -144s-64 -144 -144 -144s-144 64 -144 144zM240 160c0 -62 50 -112 112 -112s112 50 112 112s-50 112 -112 112s-112 -50 -112 -112zM272 160c0 9 7 16 16 16h128c9 0 16 -7 16 -16s-7 -16 -16 -16h-128
c-9 0 -16 7 -16 16zM312 368h73l-73 73v-73z" />
    <glyph glyph-name="uniE0A4" unicode="file_schedule" 
d="M72 72v368c0 31 25 56 56 56h168c3 0 6 -1 9 -3l2 -2l128 -128l2 -2c2 -2 3 -6 3 -9v-31c0 -9 -7 -16 -16 -16s-16 7 -16 16v15h-112c-7 0 -16 6 -16 16v112h-152c-13 0 -24 -11 -24 -24v-368c0 -13 11 -24 24 -24h103c9 0 16 -7 16 -16s-7 -16 -16 -16h-103
c-31 0 -56 25 -56 56zM208 160c0 80 64 144 144 144s144 -64 144 -144s-64 -144 -144 -144s-144 64 -144 144zM240 160c0 -62 50 -112 112 -112s112 50 112 112s-50 112 -112 112s-112 -50 -112 -112zM312 368h73l-73 73v-73zM336 160v64c0 9 7 16 16 16s16 -7 16 -16v-57
l35 -36c6 -6 6 -16 0 -22s-16 -6 -22 0l-40 40c-2 2 -5 7 -5 11z" />
    <glyph glyph-name="uniE0A5" unicode="file_signed" 
d="M72 72v368c0 31 25 56 56 56h168c3 0 6 -1 9 -3l2 -2l128 -128l2 -2c2 -2 3 -6 3 -9v-280c0 -31 -25 -56 -56 -56h-256c-31 0 -56 25 -56 56zM104 72c0 -13 11 -24 24 -24h256c13 0 24 11 24 24v264h-112c-7 0 -16 6 -16 16v112h-152c-13 0 -24 -11 -24 -24v-368z
M136 200c0 9 7 16 16 16h208c9 0 16 -7 16 -16s-7 -16 -16 -16h-208c-9 0 -16 7 -16 16zM136 264c0 9 7 16 16 16h208c9 0 16 -7 16 -16s-7 -16 -16 -16h-208c-9 0 -16 7 -16 16zM136 320c0 9 7 16 16 16h48c9 0 16 -7 16 -16s-7 -16 -16 -16h-48c-9 0 -16 7 -16 16z
M136 376c0 9 7 16 16 16h72c9 0 16 -7 16 -16s-7 -16 -16 -16h-72c-9 0 -16 7 -16 16zM140 118c-5 7 -5 17 2 22c12 10 27 19 42 11c18 -10 19 -30 20 -31c1 10 6 20 19 29c36 24 69 -10 69 -10c6 -7 5 -16 -1 -22s-16 -6 -22 0c-2 2 -17 13 -28 6c0 0 0 -35 -37 -35
c-26 0 -33 25 -36 32c-1 0 -3 -2 -6 -4c-7 -5 -17 -5 -22 2zM312 368h73l-73 73v-73z" />
    <glyph glyph-name="uniE0A6" unicode="file_style" 
d="M72 72v368c0 31 25 56 56 56h168c3 0 6 -1 9 -3l2 -2l128 -128l2 -2c2 -2 3 -6 3 -9v-280c0 -31 -25 -56 -56 -56h-256c-31 0 -56 25 -56 56zM104 72c0 -13 11 -24 24 -24h256c13 0 24 11 24 24v264h-112c-7 0 -16 6 -16 16v112h-152c-13 0 -24 -11 -24 -24v-368z
M136 152c0 9 7 16 16 16h43l9 48h-36c-9 0 -16 7 -16 16s7 16 16 16h42l6 35c2 9 10 15 19 13s15 -10 13 -19l-6 -29h48l6 35c2 9 10 15 19 13s15 -10 13 -19l-6 -29h38c9 0 16 -7 16 -16s-7 -16 -16 -16h-43l-9 -48h36c9 0 16 -7 16 -16s-7 -16 -16 -16h-42l-6 -35
c-2 -9 -10 -15 -19 -13s-15 10 -13 19l6 29h-48l-6 -35c-2 -9 -10 -15 -19 -13s-15 10 -13 19l6 29h-38c-9 0 -16 7 -16 16zM228 168h47l9 48h-47zM312 368h73l-73 73v-73z" />
    <glyph glyph-name="uniE0A7" unicode="file_text" 
d="M72 72v368c0 31 25 56 56 56h168c3 0 6 -1 9 -3l2 -2l128 -128l2 -2c2 -2 3 -6 3 -9v-280c0 -31 -25 -56 -56 -56h-256c-31 0 -56 25 -56 56zM104 72c0 -13 11 -24 24 -24h256c13 0 24 11 24 24v264h-112c-7 0 -16 6 -16 16v112h-152c-13 0 -24 -11 -24 -24v-368z
M136 136c0 9 7 16 16 16h80c9 0 16 -7 16 -16s-7 -16 -16 -16h-80c-9 0 -16 7 -16 16zM136 200c0 9 7 16 16 16h208c9 0 16 -7 16 -16s-7 -16 -16 -16h-208c-9 0 -16 7 -16 16zM136 264c0 9 7 16 16 16h208c9 0 16 -7 16 -16s-7 -16 -16 -16h-208c-9 0 -16 7 -16 16z
M312 368h73l-73 73v-73z" />
    <glyph glyph-name="uniE0A8" unicode="file_upload" 
d="M72 72v368c0 31 25 56 56 56h168c3 0 6 -1 9 -3l2 -2l128 -128l2 -2c2 -2 3 -6 3 -9v-31c0 -9 -7 -16 -16 -16s-16 7 -16 16v15h-112c-7 0 -16 6 -16 16v112h-152c-13 0 -24 -11 -24 -24v-368c0 -13 11 -24 24 -24h103c9 0 16 -7 16 -16s-7 -16 -16 -16h-103
c-31 0 -56 25 -56 56zM208 160c0 80 64 144 144 144s144 -64 144 -144s-64 -144 -144 -144s-144 64 -144 144zM240 160c0 -62 50 -112 112 -112s112 50 112 112s-50 112 -112 112s-112 -50 -112 -112zM277 149c-6 6 -6 16 0 22l64 64l3 3c2 1 5 2 8 2s6 -1 9 -3
c1 0 1 -1 2 -2l64 -64c6 -6 6 -16 0 -22s-16 -6 -22 0l-37 36v-89c0 -9 -7 -16 -16 -16s-16 7 -16 16v89l-37 -36c-6 -6 -16 -6 -22 0zM312 368h73l-73 73v-73z" />
    <glyph glyph-name="uniE0A9" unicode="file" 
d="M72 72v368c0 31 25 56 56 56h168c3 0 6 -1 9 -3l2 -2l128 -128l2 -2c2 -2 3 -6 3 -9v-280c0 -31 -25 -56 -56 -56h-256c-31 0 -56 25 -56 56zM104 72c0 -13 11 -24 24 -24h256c13 0 24 11 24 24v264h-112c-7 0 -16 6 -16 16v112h-152c-13 0 -24 -11 -24 -24v-368z
M312 368h73l-73 73v-73z" />
    <glyph glyph-name="uniE0AA" unicode="files_add" 
d="M32 72v368c0 31 25 56 56 56h168h96c4 0 9 -3 11 -5l112 -112c3 -3 5 -7 5 -11v-72c0 -9 -7 -16 -16 -16s-16 7 -16 16v65l-103 103h-50l100 -101l2 -2c2 -2 3 -6 3 -9v-19c0 -9 -7 -16 -16 -16s-16 7 -16 16v3h-112c-7 0 -16 6 -16 16v112h-152c-13 0 -24 -11 -24 -24
v-368c0 -13 11 -24 24 -24h143c9 0 16 -7 16 -16s-7 -16 -16 -16h-143c-31 0 -56 25 -56 56zM208 160c0 80 64 144 144 144s144 -64 144 -144s-64 -144 -144 -144s-144 64 -144 144zM240 160c0 -62 50 -112 112 -112s112 50 112 112s-50 112 -112 112s-112 -50 -112 -112z
M272 160c0 9 7 16 16 16h48v48c0 9 7 16 16 16s16 -7 16 -16v-48h48c9 0 16 -7 16 -16s-7 -16 -16 -16h-48v-48c0 -9 -7 -16 -16 -16s-16 7 -16 16v48h-48c-9 0 -16 7 -16 16zM272 368h73l-73 73v-73z" />
    <glyph glyph-name="uniE0AB" unicode="files_delete" 
d="M32 72v368c0 31 25 56 56 56h168h96c4 0 9 -3 11 -5l112 -112c3 -3 5 -7 5 -11v-72c0 -9 -7 -16 -16 -16s-16 7 -16 16v65l-103 103h-50l100 -101l2 -2c2 -2 3 -6 3 -9v-19c0 -9 -7 -16 -16 -16s-16 7 -16 16v3h-112c-7 0 -16 6 -16 16v112h-152c-13 0 -24 -11 -24 -24
v-368c0 -13 11 -24 24 -24h143c9 0 16 -7 16 -16s-7 -16 -16 -16h-143c-31 0 -56 25 -56 56zM208 160c0 80 64 144 144 144s144 -64 144 -144s-64 -144 -144 -144s-144 64 -144 144zM240 160c0 -62 50 -112 112 -112s112 50 112 112s-50 112 -112 112s-112 -50 -112 -112z
M272 368h73l-73 73v-73zM293 101c-6 6 -6 16 0 22l36 37l-36 37c-6 6 -6 16 0 22s16 6 22 0l37 -36l37 36c6 6 16 6 22 0s6 -16 0 -22l-36 -37l36 -37c6 -6 6 -16 0 -22s-16 -6 -22 0l-37 36l-37 -36c-6 -6 -16 -6 -22 0z" />
    <glyph glyph-name="uniE0AC" unicode="files_download" 
d="M32 72v368c0 31 25 56 56 56h168h96c4 0 9 -3 11 -5l112 -112c3 -3 5 -7 5 -11v-72c0 -9 -7 -16 -16 -16s-16 7 -16 16v65l-103 103h-50l100 -101l2 -2c2 -2 3 -6 3 -9v-19c0 -9 -7 -16 -16 -16s-16 7 -16 16v3h-112c-7 0 -16 6 -16 16v112h-152c-13 0 -24 -11 -24 -24
v-368c0 -13 11 -24 24 -24h143c9 0 16 -7 16 -16s-7 -16 -16 -16h-143c-31 0 -56 25 -56 56zM208 160c0 80 64 144 144 144s144 -64 144 -144s-64 -144 -144 -144s-144 64 -144 144zM240 160c0 -62 50 -112 112 -112s112 50 112 112s-50 112 -112 112s-112 -50 -112 -112z
M272 368h73l-73 73v-73zM277 149c-6 6 -6 16 0 22s16 6 22 0l37 -36v89c0 9 7 16 16 16s16 -7 16 -16v-89l37 36c6 6 16 6 22 0s6 -16 0 -22l-64 -64c-1 -1 -1 -2 -2 -2c-3 -2 -6 -3 -9 -3s-6 1 -8 2l-3 3z" />
    </font>
</defs>
</svg>
